<svg xmlns="http://www.w3.org/2000/svg" xmlns:xlink="http://www.w3.org/1999/xlink" xmlns:lucid="lucid" width="1763.78" height="755.91"><g transform="translate(0 0)" lucid:page-tab-id="0_0"><path d="M312 200c26.5 0 48 21.58 48 48.2 0 26.62-21.5 48.2-48 48.2H168c-26.5 0-48-21.58-48-48.2 0-26.62 21.5-48.2 48-48.2z" stroke="#000" stroke-opacity="0" fill="#ff741d"/><use xlink:href="#a" transform="matrix(1,0,0,1,125,205) translate(34.625 25.5)"/><use xlink:href="#b" transform="matrix(1,0,0,1,125,205) translate(119.47500000000001 25.5)"/><use xlink:href="#c" transform="matrix(1,0,0,1,125,205) translate(17.44999999999999 47.1)"/><use xlink:href="#d" transform="matrix(1,0,0,1,125,205) translate(87.39999999999999 47.1)"/><use xlink:href="#e" transform="matrix(1,0,0,1,125,205) translate(107.39999999999999 47.1)"/><use xlink:href="#f" transform="matrix(1,0,0,1,125,205) translate(20.599999999999994 68.7)"/><use xlink:href="#g" transform="matrix(1,0,0,1,125,205) translate(136.5 68.7)"/><use xlink:href="#h" transform="matrix(1,0,0,1,125,205) translate(161.5 68.7)"/><path d="M738.32 196.2c0-4.42 3.58-8 8-8h144c4.42 0 8 3.58 8 8v104c0 4.42-3.58 8-8 8h-144c-4.42 0-8-3.58-8-8z" stroke="#000" stroke-opacity="0" stroke-width="2" fill="#ff8839"/><use xlink:href="#i" transform="matrix(1,0,0,1,743.320384461658,193.20000000000002) translate(8.525000000000006 37)"/><use xlink:href="#j" transform="matrix(1,0,0,1,743.320384461658,193.20000000000002) translate(63.47500000000001 37)"/><use xlink:href="#k" transform="matrix(1,0,0,1,743.320384461658,193.20000000000002) translate(33.525 58.6)"/><use xlink:href="#l" transform="matrix(1,0,0,1,743.320384461658,193.20000000000002) translate(91.475 58.6)"/><use xlink:href="#m" transform="matrix(1,0,0,1,743.320384461658,193.20000000000002) translate(20.049999999999997 80.20000000000002)"/><use xlink:href="#n" transform="matrix(1,0,0,1,743.320384461658,193.20000000000002) translate(97 80.20000000000002)"/><path d="M360.5 248.2h123.24" stroke="#333" fill="none"/><path d="M360.5 248.7h-.53l.03-.5v-.5h.5z" fill="#333"/><path d="M498.5 248.2l-14.26 4.64v-9.28z" stroke="#333" fill="#333"/><path d="M562.5 248.2h159.44" stroke="#333" fill="none"/><path d="M562.5 248.7h-.56l.06-.5-.05-.5h.56z" fill="#333"/><path d="M736.7 248.2l-14.26 4.64v-9.28z" stroke="#333" fill="#333"/><path d="M898.82 248.2h66.52" stroke="#333" fill="none"/><path d="M898.83 248.7h-.5v-1h.5z" fill="#333"/><path d="M980.1 248.2l-14.26 4.64v-9.28z" stroke="#333" fill="#333"/><path d="M453.15 62.35c0-4.42 3.58-8 8-8h836.75c4.4 0 8 3.58 8 8v57.6c0 4.43-3.6 8-8 8H461.15c-4.42 0-8-3.57-8-8z" stroke="#000" stroke-opacity="0" stroke-width="2" fill="#fff" fill-opacity="0"/><use xlink:href="#o" transform="matrix(1,0,0,1,457.14655278534315,58.348557290064946) translate(79.09395061728401 23.851111111111106)"/><use xlink:href="#p" transform="matrix(1,0,0,1,457.14655278534315,58.348557290064946) translate(209.91370370370376 23.851111111111106)"/><use xlink:href="#q" transform="matrix(1,0,0,1,457.14655278534315,58.348557290064946) translate(372.6371604938272 23.851111111111106)"/><use xlink:href="#r" transform="matrix(1,0,0,1,457.14655278534315,58.348557290064946) translate(541.4791358024692 23.851111111111106)"/><use xlink:href="#s" transform="matrix(1,0,0,1,457.14655278534315,58.348557290064946) translate(583.5803703703704 23.851111111111106)"/><use xlink:href="#t" transform="matrix(1,0,0,1,457.14655278534315,58.348557290064946) translate(737.7087654320987 23.851111111111106)"/><use xlink:href="#u" transform="matrix(1,0,0,1,457.14655278534315,58.348557290064946) translate(338.2246913580247 55.31777777777778)"/><path d="M726.15 125.56h313.4M726.18 125.56h-1.03M1039.5 125.56h1.04" stroke="#a9afb8" stroke-width="2" fill="none"/><path d="M453.15 128c0-4.42 3.58-8 8-8h837.7c4.42 0 8 3.58 8 8v24c0 4.42-3.58 8-8 8h-837.7c-4.42 0-8-3.58-8-8z" stroke="#000" stroke-opacity="0" stroke-width="2" fill="#fff" fill-opacity="0"/><use xlink:href="#v" transform="matrix(1,0,0,1,457.14655278534315,124) translate(308.06113168724283 20.89925925925926)"/><use xlink:href="#w" transform="matrix(1,0,0,1,457.14655278534315,124) translate(364.8698765432099 20.89925925925926)"/><use xlink:href="#x" transform="matrix(1,0,0,1,457.14655278534315,124) translate(441.2238888888889 20.89925925925926)"/><use xlink:href="#y" transform="matrix(1,0,0,1,457.14655278534315,124) translate(453.6733744855967 20.89925925925926)"/><use xlink:href="#z" transform="matrix(1,0,0,1,457.14655278534315,124) translate(485.07327160493827 20.89925925925926)"/><use xlink:href="#A" transform="matrix(1,0,0,1,457.14655278534315,124) translate(510.5670987654321 20.89925925925926)"/><path d="M1180 196.2c0-4.42 3.58-8 8-8h145.68c4.42 0 8 3.58 8 8v104c0 4.42-3.58 8-8 8H1188c-4.42 0-8-3.58-8-8z" stroke="#000" stroke-opacity="0" stroke-width="2" fill="#ff8839"/><use xlink:href="#B" transform="matrix(1,0,0,1,1185.0000000000005,193.20000000000002) translate(12.099999999999994 58.6)"/><use xlink:href="#C" transform="matrix(1,0,0,1,1185.0000000000005,193.20000000000002) translate(87 58.6)"/><path d="M1097.1 248.2h66.52" stroke="#333" fill="none"/><path d="M1097.1 248.7h-.24l-.52-1h.77z" fill="#333"/><path d="M1178.38 248.2l-14.26 4.64v-9.28z" stroke="#333" fill="#333"/><path d="M1400 440.8c0-4.42 3.58-8 8-8h262.32c4.42 0 8 3.58 8 8v104c0 4.42-3.58 8-8 8H1408c-4.42 0-8-3.58-8-8z" stroke="#000" stroke-opacity="0" stroke-width="2" fill="#ff8839"/><use xlink:href="#D" transform="matrix(1,0,0,1,1405,437.8) translate(1.5999999999999943 26.19999999999999)"/><use xlink:href="#E" transform="matrix(1,0,0,1,1405,437.8) translate(69.55 26.19999999999999)"/><use xlink:href="#F" transform="matrix(1,0,0,1,1405,437.8) translate(118.5 26.19999999999999)"/><use xlink:href="#G" transform="matrix(1,0,0,1,1405,437.8) translate(192.45000000000002 26.19999999999999)"/><use xlink:href="#H" transform="matrix(1,0,0,1,1405,437.8) translate(227.45000000000002 26.19999999999999)"/><use xlink:href="#I" transform="matrix(1,0,0,1,1405,437.8) translate(252.4 26.19999999999999)"/><use xlink:href="#J" transform="matrix(1,0,0,1,1405,437.8) translate(6.549999999999997 47.79999999999999)"/><use xlink:href="#K" transform="matrix(1,0,0,1,1405,437.8) translate(61.5 47.79999999999999)"/><use xlink:href="#L" transform="matrix(1,0,0,1,1405,437.8) translate(86.5 47.79999999999999)"/><use xlink:href="#M" transform="matrix(1,0,0,1,1405,437.8) translate(179.45 47.79999999999999)"/><use xlink:href="#N" transform="matrix(1,0,0,1,1405,437.8) translate(11.125 69.39999999999999)"/><use xlink:href="#g" transform="matrix(1,0,0,1,1405,437.8) translate(65.125 69.39999999999999)"/><use xlink:href="#O" transform="matrix(1,0,0,1,1405,437.8) translate(90.125 69.39999999999999)"/><use xlink:href="#d" transform="matrix(1,0,0,1,1405,437.8) translate(138.075 69.39999999999999)"/><use xlink:href="#P" transform="matrix(1,0,0,1,1405,437.8) translate(158.075 69.39999999999999)"/><use xlink:href="#Q" transform="matrix(1,0,0,1,1405,437.8) translate(215.92499999999998 69.39999999999999)"/><use xlink:href="#R" transform="matrix(1,0,0,1,1405,437.8) translate(34.099999999999994 91)"/><use xlink:href="#S" transform="matrix(1,0,0,1,1405,437.8) translate(58.099999999999994 91)"/><use xlink:href="#T" transform="matrix(1,0,0,1,1405,437.8) translate(129 91)"/><use xlink:href="#U" transform="matrix(1,0,0,1,1405,437.8) translate(149 91)"/><use xlink:href="#V" transform="matrix(1,0,0,1,1405,437.8) translate(229.9 91)"/><path d="M312 456.4c26.5 0 48 21.58 48 48.2 0 26.62-21.5 48.2-48 48.2H168c-26.5 0-48-21.58-48-48.2 0-26.62 21.5-48.2 48-48.2z" stroke="#000" stroke-opacity="0" fill="#ff741d"/><g><use xlink:href="#W" transform="matrix(1,0,0,1,125,461.4000000000001) translate(14.324999999999989 47.1)"/><use xlink:href="#X" transform="matrix(1,0,0,1,125,461.4000000000001) translate(104.175 47.1)"/><use xlink:href="#Y" transform="matrix(1,0,0,1,125,461.4000000000001) translate(153.725 47.1)"/><use xlink:href="#Z" transform="matrix(1,0,0,1,125,461.4000000000001) translate(193.675 47.1)"/></g><path d="M420 460.72c0-4.42 3.57-8.28 7.98-8.62l242.36-18.68c4.4-.34 7.98 2.96 7.98 7.38v104c0 4.42-3.58 8-8 8H428c-4.42 0-8-3.58-8-8z" stroke="#000" stroke-opacity="0" stroke-width="2" fill="#ff8839"/><g><use xlink:href="#aa" transform="matrix(1,0,0,1,425.00000000000006,457.80000000000007) translate(34.55 27)"/><use xlink:href="#ab" transform="matrix(1,0,0,1,425.00000000000006,457.80000000000007) translate(114.5 27)"/><use xlink:href="#ac" transform="matrix(1,0,0,1,425.00000000000006,457.80000000000007) translate(184.45 27)"/><use xlink:href="#ad" transform="matrix(1,0,0,1,425.00000000000006,457.80000000000007) translate(10.599999999999994 48.6)"/><use xlink:href="#d" transform="matrix(1,0,0,1,425.00000000000006,457.80000000000007) translate(84.5 48.6)"/><use xlink:href="#m" transform="matrix(1,0,0,1,425.00000000000006,457.80000000000007) translate(104.5 48.6)"/><use xlink:href="#ae" transform="matrix(1,0,0,1,425.00000000000006,457.80000000000007) translate(181.45000000000002 48.6)"/><use xlink:href="#af" transform="matrix(1,0,0,1,425.00000000000006,457.80000000000007) translate(223.4 48.6)"/><use xlink:href="#ag" transform="matrix(1,0,0,1,425.00000000000006,457.80000000000007) translate(45.45 70.2)"/><use xlink:href="#ah" transform="matrix(1,0,0,1,425.00000000000006,457.80000000000007) translate(123.4 70.2)"/><use xlink:href="#ai" transform="matrix(1,0,0,1,425.00000000000006,457.80000000000007) translate(139.75 70.2)"/><use xlink:href="#aj" transform="matrix(1,0,0,1,425.00000000000006,457.80000000000007) translate(187.60000000000002 70.2)"/></g><path d="M360.5 504.6h43.12" stroke="#333" fill="none"/><path d="M360.5 505.1h-.53l.03-.5v-.5h.5z" fill="#333"/><path d="M418.38 504.6l-14.26 4.64v-9.28z" stroke="#333" fill="#333"/><path d="M678.82 492.9h508.13" stroke="#333" fill="none"/><path d="M678.83 493.4h-.5v-1h.5z" fill="#333"/><path d="M1201.7 492.9l-14.25 4.65v-9.27z" stroke="#333" fill="#333"/><path d="M1260.84 308.7v107.83" stroke="#333" fill="none"/><path d="M1261.34 308.7h-1v-.5h1z" fill="#333"/><path d="M1260.84 431.3l-4.64-14.27h9.28z" stroke="#333" fill="#333"/><path d="M1297.53 492.8h86.1" stroke="#333" fill="none"/><path d="M1296.88 493.3h-2.85v-1h3.14z" fill="#333"/><path d="M1398.38 492.8l-14.26 4.64v-9.28z" stroke="#333" fill="#333"/><path d="M1539.16 432.3V183.18c0-6.63-5.37-12-12-12h-476c-6.63 0-12 5.37-12 12v11.6" stroke="#333" fill="none"/><path d="M1539.66 432.8h-1v-.5h1z" fill="#333"/><path d="M1039.16 209.56l-4.64-14.27h9.28z" stroke="#333" fill="#333"/><path d="M524.02 265.47c-.5-.36-.86-.48-1.23-.84-2.86-2.28-5.9-4.32-8.56-6.84-4.15-4.33-5.08-10.32-2.48-15.72 1.8-3 3.84-5.16 6.63-7.2 6.12-4.68 11.75-8.04 18.75-11.4 4.7-2.16 8.48-4.44 12.57-7.56 6.38-5.16 10.22-11.4 11.83-19.44.12-.84.25-1.68.3-2.52v-.12c.38-2.76-1.66-5.28-4.45-5.64-2.8-.24-5.26 1.68-5.57 4.56-1.43 8.64-6.63 14.52-13.94 18.84-3.47 2.04-7.13 3.72-10.72 5.64-6.87 3.48-12.26 7.2-17.95 12.36-3.4 3.24-6.7 6.6-8 11.4-2.9 8.75-.6 17.75 6.08 24.23 1.86 1.8 3.9 3.48 5.9 5.16.36.35.8.47 1.3.35 3.15-1.68 6.24-3.48 9.52-5.28zm13.75 18.24c1.12.73 2.1 1.33 3.1 1.93 5.94 3.48 9.53 8.88 10.46 15.6.12.84.2 1.68.3 2.52.38 2.76 2.8 4.68 5.46 4.44 2.65-.25 4.63-2.53 4.5-5.17 0-7.08-2.22-13.08-6.86-18.6-1.92-2.04-3.72-3.72-5.9-5.52-.36-.23-.8-.35-1.3-.23-3.2 1.56-6.36 3.24-9.77 5.04z" stroke="#000" stroke-opacity="0" stroke-width="2.5" fill="#ff8c00"/><path d="M511.53 198.9c.8 2.52 1.86 4.44 3.47 6.48h21.86c-1.24.96-2.3 1.68-3.65 2.52-.67.36-1.42.72-2.1 1.2h-12.38c.8.6 1.55 1.08 2.4 1.68 1 .6 2 1.2 3.1 1.92-3.4 1.8-6.56 3.48-9.84 5.04-.43.12-.86 0-1.24-.24-2.23-1.8-3.96-3.48-5.88-5.64-4.64-5.4-6.87-11.4-6.93-18.48-.07-2.76 1.92-4.92 4.58-5.16 2.67-.24 5.1 1.68 5.46 4.44.12.84.18 1.68.3 2.52v.12h34.5v.12c-.62 1.32-1.18 2.4-1.98 3.48zm-11.08 101.02c1.6-7.92 5.45-14.28 11.83-19.43 4.08-3.13 7.86-5.4 12.57-7.57 7-3.24 12.63-6.72 18.76-11.4.63-.48 1.3-1.08 1.93-1.56h-21.6c-.88-.72-1.5-1.32-2.3-2.04-.56-.48-1-.96-1.43-1.68H549c.5-.6.86-1.2 1.23-1.92.8-1.44 1.18-2.88 1.3-4.56h-33.68c-.12-1.32-.12-2.4.06-3.72h33.57c-.37-2.4-1.24-4.32-2.72-6.36h-27.87c1.12-1.33 2.23-2.4 3.6-3.6h20.3l-5.57-4.32c-.36-.36-.73-.48-1.23-.84 3.3-1.8 6.38-3.6 9.54-5.28.5-.12.94 0 1.3.36 2 1.68 4.04 3.36 5.9 5.16 6.68 6.35 8.97 15.47 6.06 24.23-1.3 4.8-4.58 8.17-8 11.4-5.68 5.17-11.07 8.9-17.94 12.37-3.6 1.92-7.25 3.6-10.72 5.63-1.6.96-2.9 1.8-4.4 3h14.62l.25.12c1.67 1.08 2.97 2.16 4.4 3.48h-23.04c-1.8 2.04-3.03 4.08-4.1 6.6h31.6c.55 1.2.86 2.28 1.17 3.6h-33.93c-.2.72-.37 1.44-.5 2.16-.3 2.76-2.85 4.68-5.63 4.44-2.73-.36-4.77-2.88-4.4-5.64v-.12c.06-.84.2-1.68.3-2.52z" stroke="#000" stroke-opacity="0" stroke-width="2.5" fill="#59b4d9"/><path d="M504.8 190.84h53.3V304.4h-53.3V190.85z" stroke="#000" stroke-opacity="0" stroke-width="2.5" fill-opacity="0"/><g><use xlink:href="#ak" transform="matrix(1,0,0,1,470,317.20000000000005) translate(6.549999999999997 14.4)"/><use xlink:href="#al" transform="matrix(1,0,0,1,470,317.20000000000005) translate(40.55 14.4)"/><use xlink:href="#am" transform="matrix(1,0,0,1,470,317.20000000000005) translate(8.549999999999997 36)"/><use xlink:href="#an" transform="matrix(1,0,0,1,470,317.20000000000005) translate(85.5 36)"/><use xlink:href="#ao" transform="matrix(1,0,0,1,470,317.20000000000005) translate(20.574999999999996 57.6)"/><use xlink:href="#ap" transform="matrix(1,0,0,1,470,317.20000000000005) translate(87.475 57.6)"/><use xlink:href="#aq" transform="matrix(1,0,0,1,470,317.20000000000005) translate(20.549999999999997 79.20000000000002)"/></g><path d="M1072.92 233.2c3.63 0 7.02.68 10.23 2.1 3.14 1.36 5.94 3.25 8.34 5.62 2.3 2.36 4.2 5.14 5.6 8.3 1.4 3.2 2.06 6.6 2.06 10.23 0 3.62-.66 7.03-2.06 10.24-1.4 3.14-3.3 5.92-5.6 8.28-2.4 2.36-5.2 4.25-8.35 5.62-3.2 1.42-6.6 2.1-10.23 2.1h-30.03c-3.64 0-7.02-.68-10.24-2.1-3.13-1.37-5.94-3.26-8.33-5.62-2.3-2.36-4.2-5.14-5.6-8.3-1.4-3.2-2.07-6.6-2.07-10.23 0-3.62.66-7.04 2.06-10.24 1.4-3.14 3.3-5.92 5.6-8.28 2.4-2.37 5.2-4.26 8.34-5.62 3.22-1.42 6.6-2.1 10.23-2.1h3.8v7.5c-2.98 0-5.87.32-8.6 1-2.7.7-5.1 1.8-7.17 3.3-2.06 1.48-3.7 3.42-4.95 5.8-1.24 2.35-1.8 5.24-1.8 8.65 0 2.57.48 5 1.47 7.24 1 2.25 2.3 4.25 4.04 5.98 1.73 1.68 3.7 3.04 5.93 4.04 2.3 1 4.7 1.47 7.26 1.47h30.02c2.56 0 4.95-.48 7.26-1.48 2.23-1 4.2-2.36 5.94-4.04 1.74-1.73 3.06-3.73 4.05-6 1-2.24 1.48-4.66 1.48-7.23 0-3.4-.58-6.3-1.8-8.66-1.25-2.38-2.9-4.27-4.96-5.8-2.08-1.5-4.47-2.6-7.2-3.3-2.7-.68-5.6-1-8.57-1v-7.5h3.8z" stroke="#000" stroke-opacity="0" stroke-width="3" fill="#7fba00"/><path d="M1031.63 263.2v-7.5c2.97 0 5.86-.32 8.58-1 2.73-.7 5.13-1.8 7.2-3.3 2.05-1.53 3.7-3.42 4.94-5.8 1.24-2.35 1.8-5.24 1.8-8.65 0-2.57-.48-5-1.47-7.24-1-2.3-2.3-4.25-4.04-5.98-1.74-1.68-3.72-3.04-5.94-4.04-2.32-1-4.72-1.47-7.27-1.47h-30.03c-2.56 0-4.95.48-7.26 1.48-2.23 1-4.2 2.36-5.94 4.04-1.74 1.73-3.06 3.68-4.05 6-1 2.24-1.48 4.66-1.48 7.23 0 3.4.58 6.3 1.8 8.66 1.25 2.38 2.9 4.27 4.96 5.8 2.07 1.5 4.46 2.6 7.18 3.3 2.73.68 5.62 1 8.6 1v7.5h-3.8c-3.63 0-7.02-.68-10.23-2.1-3.14-1.36-5.94-3.25-8.34-5.62-2.3-2.36-4.2-5.14-5.6-8.3-1.4-3.2-2.07-6.6-2.07-10.23 0-3.62.66-7.03 2.06-10.24 1.4-3.14 3.3-5.92 5.6-8.28 2.4-2.36 5.2-4.25 8.35-5.62 3.2-1.42 6.6-2.1 10.23-2.1h30.03c3.63 0 7 .68 10.23 2.1 3.13 1.37 5.94 3.26 8.33 5.62 2.3 2.36 4.2 5.14 5.6 8.3 1.4 3.2 2.06 6.6 2.06 10.23 0 3.62-.66 7.04-2.06 10.24-1.4 3.14-3.3 5.92-5.6 8.28-2.4 2.37-5.2 4.26-8.34 5.62-3.22 1.42-6.6 2.1-10.23 2.1h-3.8z" stroke="#000" stroke-opacity="0" stroke-width="3" fill="#59b4d9"/><path d="M1005.78 262.18h28.93s24.42-.9 25.63-25.62c0 0 .97-21.48-24.82-24.8h-33.67s-17.4 2.3-21.92 21.88c0 0-2.9 18.65 15.24 26.37 0 0 2.5 1.97 10.64 2.18z" stroke="#000" stroke-opacity="0" stroke-width="0" fill-opacity="0"/><path d="M1045.68 234.28h24.2s23.4-3.03 28.14 23.57c0 0 3.05 14.38-15.3 24.48 0 0-3.6 1.96-8.82 2.32h-32.55s-21.4-1.82-23.24-23.27c0 0-2.47-27.15 27.58-27.1z" stroke="#000" stroke-opacity="0" stroke-width="0" fill-opacity="0"/><g><use xlink:href="#ar" transform="matrix(1,0,0,1,949.1601922308292,294.70000000000005) translate(14.099999999999994 14.4)"/><use xlink:href="#as" transform="matrix(1,0,0,1,949.1601922308292,294.70000000000005) translate(52.05 14.4)"/><use xlink:href="#at" transform="matrix(1,0,0,1,949.1601922308292,294.70000000000005) translate(82.05 14.4)"/><use xlink:href="#au" transform="matrix(1,0,0,1,949.1601922308292,294.70000000000005) translate(153.9 14.4)"/><use xlink:href="#av" transform="matrix(1,0,0,1,949.1601922308292,294.70000000000005) translate(1.625 36)"/><use xlink:href="#aw" transform="matrix(1,0,0,1,949.1601922308292,294.70000000000005) translate(81.525 36)"/><use xlink:href="#ax" transform="matrix(1,0,0,1,949.1601922308292,294.70000000000005) translate(119.47500000000001 36)"/><use xlink:href="#ay" transform="matrix(1,0,0,1,949.1601922308292,294.70000000000005) translate(32.55 57.6)"/><use xlink:href="#az" transform="matrix(1,0,0,1,949.1601922308292,294.70000000000005) translate(69.45 57.6)"/></g><path d="M1260.83 455.65l37.86 31.5-12.73 43.2h-51.08l-12.03-43.2 37.96-31.5m0-13.4l-49.7 41.25 15.9 57.2h66.6l16.9-57.2-49.7-41.24z" stroke="#000" stroke-opacity="0" fill="#dd5900"/><path d="M1260.84 432.9c10.35 0 18.75 8.4 18.75 18.76 0 10.35-8.4 18.75-18.76 18.75-10.35 0-18.75-8.4-18.75-18.74 0-10.35 8.4-18.75 18.74-18.75zM1302.1 464.8c10.34 0 18.74 8.4 18.74 18.74 0 10.34-8.4 18.74-18.75 18.74-10.36 0-18.76-8.4-18.76-18.74 0-10.35 8.4-18.75 18.75-18.75zM1288.03 515.4c10.35 0 18.75 8.4 18.75 18.76 0 10.35-8.4 18.75-18.75 18.75s-18.75-8.4-18.75-18.74c0-10.35 8.4-18.75 18.75-18.75zM1233.63 515.4c10.35 0 18.75 8.4 18.75 18.76 0 10.35-8.4 18.75-18.75 18.75s-18.75-8.4-18.75-18.74c0-10.35 8.4-18.75 18.75-18.75zM1219.6 464.8c10.34 0 18.74 8.4 18.74 18.74 0 10.34-8.4 18.74-18.75 18.74-10.36 0-18.76-8.4-18.76-18.74 0-10.35 8.4-18.75 18.75-18.75z" stroke="#000" stroke-opacity="0" fill="#ff8c00"/><path d="M1236.95 552.55l7.66-33.6c-3.1-2.16-6.9-3.48-11-3.48-.95 0-1.9 0-2.78.12l-4.1-14.65c6.82-2.88 11.62-9.6 11.62-17.4 0-2.76-.63-5.4-1.7-7.8l11.95-9.96c2 1.8 4.48 3.1 7.2 3.95l8.28-36.6c-1.07-.12-2.15-.24-3.22-.24-10.37 0-18.78 8.4-18.78 18.73 0 1.92.3 3.72.82 5.52l-12.97 10.8c-2.97-2.04-6.5-3.12-10.3-3.12-10.38 0-18.8 8.4-18.8 18.72 0 9.24 6.65 16.92 15.44 18.48l5.06 18c-3.98 3.48-6.45 8.52-6.45 14.16 0 10.3 8.4 18.7 18.72 18.7 1.14 0 2.28-.1 3.35-.35z" stroke="#000" stroke-opacity="0" fill="#fff" fill-opacity=".25"/><g><use xlink:href="#aA" transform="matrix(1,0,0,1,1170.8398078974096,561.9129778281647) translate(1.6500000000000057 14.4)"/><use xlink:href="#aB" transform="matrix(1,0,0,1,1170.8398078974096,561.9129778281647) translate(99.50000000000001 14.4)"/><use xlink:href="#aC" transform="matrix(1,0,0,1,1170.8398078974096,561.9129778281647) translate(157.4 14.4)"/><use xlink:href="#aD" transform="matrix(1,0,0,1,1170.8398078974096,561.9129778281647) translate(31.099999999999994 36)"/><use xlink:href="#aC" transform="matrix(1,0,0,1,1170.8398078974096,561.9129778281647) translate(127.95 36)"/><use xlink:href="#aE" transform="matrix(1,0,0,1,1170.8398078974096,561.9129778281647) translate(36.525 57.6)"/></g><defs><path fill="#fff" d="M248-139C247-14 144 9 11 0l48-248c105-6 190 8 189 109zm-34 0c1-70-52-87-126-82L50-27c98 7 163-21 164-112" id="aF"/><path fill="#fff" d="M30-147c31-64 166-65 159 27C183-49 158 1 86 4 9 8 1-88 30-147zM88-20c53 0 68-48 68-100 0-31-11-51-44-50-52 1-68 46-68 97 0 32 13 53 44 53" id="aG"/><path fill="#fff" d="M188 0h-37l-8-164L71 0H34L18-190h31l8 164 75-164h34l8 164 74-164h31" id="aH"/><path fill="#fff" d="M67-158c22-48 132-52 116 29L158 0h-32l25-140c3-38-53-32-70-12C52-117 51-52 38 0H6l36-190h30" id="aI"/><path fill="#fff" d="M6 0l50-261h32L37 0H6" id="aJ"/><path fill="#fff" d="M165-48c-4 18 1 34 23 27l-3 20c-29 8-62 0-52-35h-2C116-14 99 4 63 4 30 4 8-16 8-49c0-68 71-67 138-67 10-26 0-56-31-54-26 1-42 9-47 31l-32-5c8-67 160-71 144 15-5 28-9 54-15 81zM42-50c3 52 80 24 89-6 7-12 7-24 11-38-47 1-103-4-100 44" id="aK"/><path fill="#fff" d="M133-28C103 26-5 8 13-77c13-62 24-115 90-117 29-1 46 15 56 35l19-102h32L160 0h-30zM45-64c-2 27 10 43 35 43 54-1 69-50 69-103 0-29-15-46-42-46-53-1-58 58-62 106" id="aL"/><g id="a"><use transform="matrix(0.05,0,0,0.05,0,0)" xlink:href="#aF"/><use transform="matrix(0.05,0,0,0.05,12.950000000000001,0)" xlink:href="#aG"/><use transform="matrix(0.05,0,0,0.05,22.950000000000003,0)" xlink:href="#aH"/><use transform="matrix(0.05,0,0,0.05,35.900000000000006,0)" xlink:href="#aI"/><use transform="matrix(0.05,0,0,0.05,45.900000000000006,0)" xlink:href="#aJ"/><use transform="matrix(0.05,0,0,0.05,49.85000000000001,0)" xlink:href="#aG"/><use transform="matrix(0.05,0,0,0.05,59.85,0)" xlink:href="#aK"/><use transform="matrix(0.05,0,0,0.05,69.85000000000001,0)" xlink:href="#aL"/></g><path fill="#fff" d="M66-151c12-25 30-51 66-40l-6 26C45-176 58-65 38 0H6l36-190h30" id="aM"/><path fill="#fff" d="M111-194c62-3 86 47 72 106H45c-7 38 6 69 45 68 27-1 43-14 53-32l24 11C152-15 129 4 87 4 38 3 12-23 12-71c0-70 32-119 99-123zm44 81c14-66-71-72-95-28-4 8-8 17-11 28h106" id="aN"/><path fill="#fff" d="M76-167L44 0H12l33-167H18l4-23h27c3-47 25-81 82-69l-4 24c-35-8-44 15-46 45h37l-5 23H76" id="aO"/><path fill="#fff" d="M44-68c0 29 11 47 38 47 30 0 42-19 51-41l28 9C148-21 126 4 82 4 31 4 10-29 12-85c3-77 74-140 146-93 12 8 15 23 18 40l-31 5c-1-22-13-36-36-36-52 0-65 49-65 101" id="aP"/><g id="b"><use transform="matrix(0.05,0,0,0.05,0,0)" xlink:href="#aM"/><use transform="matrix(0.05,0,0,0.05,5.95,0)" xlink:href="#aN"/><use transform="matrix(0.05,0,0,0.05,15.949999999999998,0)" xlink:href="#aO"/><use transform="matrix(0.05,0,0,0.05,20.95,0)" xlink:href="#aN"/><use transform="matrix(0.05,0,0,0.05,30.950000000000003,0)" xlink:href="#aM"/><use transform="matrix(0.05,0,0,0.05,36.9,0)" xlink:href="#aN"/><use transform="matrix(0.05,0,0,0.05,46.9,0)" xlink:href="#aI"/><use transform="matrix(0.05,0,0,0.05,56.900000000000006,0)" xlink:href="#aP"/><use transform="matrix(0.05,0,0,0.05,65.9,0)" xlink:href="#aN"/></g><path fill="#fff" d="M103-194c29 0 47 14 56 36 2-11 5-23 8-32h30L160-5C157 61 82 97 21 62 9 55 4 45 1 30l28-7c7 42 83 31 92-3 4-16 9-38 13-55-13 20-29 36-62 36-40 0-60-25-60-64 0-71 23-131 91-131zm4 24c-53 0-58 54-61 104-2 27 10 44 36 44 49 0 65-50 67-102 1-29-15-46-42-46" id="aQ"/><path fill="#fff" d="M248-111c6-24 9-61-24-58-72 9-57 108-77 169h-31l26-142c3-37-50-30-64-10C52-115 50-51 37 0H6l36-190h30c-1 10-6 24-4 32 13-43 101-52 105 5 13-22 29-41 61-41 90 0 28 129 23 194h-31" id="aR"/><g id="c"><use transform="matrix(0.05,0,0,0.05,0,0)" xlink:href="#aQ"/><use transform="matrix(0.05,0,0,0.05,10,0)" xlink:href="#aN"/><use transform="matrix(0.05,0,0,0.05,20,0)" xlink:href="#aI"/><use transform="matrix(0.05,0,0,0.05,30,0)" xlink:href="#aG"/><use transform="matrix(0.05,0,0,0.05,40,0)" xlink:href="#aR"/><use transform="matrix(0.05,0,0,0.05,54.95,0)" xlink:href="#aN"/></g><g id="d"><use transform="matrix(0.05,0,0,0.05,0,0)" xlink:href="#aG"/><use transform="matrix(0.05,0,0,0.05,10,0)" xlink:href="#aO"/></g><path fill="#fff" d="M194-120c59 52 2 134-86 124-53-6-90-18-98-63l31-7c8 30 29 43 70 43 46 0 84-17 71-62-32-43-135-20-137-98-3-89 178-90 191-16l-30 9c-8-48-127-53-127 5 0 53 81 35 115 65" id="aS"/><path fill="#fff" d="M187 0l-14-72H61L19 0h-37l149-248h38L221 0h-34zm-19-99l-22-123L76-99h92" id="aT"/><path fill="#fff" d="M249-183c0 48-29 72-75 77L221 0h-36l-43-103H65L45 0H11l48-248c83 2 190-17 190 65zm-34 3c0-55-74-39-127-41l-18 92c63-1 145 13 145-51" id="aU"/><path fill="#fff" d="M18-82l6-28h88l-6 28H18" id="aV"/><path fill="#fff" d="M125-24c46 0 70-25 89-51l25 16C214-24 183 4 123 4 8 4-5-146 60-208c32-50 158-61 191-5 5 7 9 14 11 22l-32 10c-9-28-33-43-69-43-74 0-108 51-108 125 0 46 24 75 72 75" id="aW"/><path fill="#fff" d="M119 0H84L31-248h34l41 218 126-218h36" id="aX"/><path fill="#fff" d="M123-251c66 0 92 69 53 113C138-94 73-75 39-27h128l-5 27H-2c17-92 123-93 159-163 14-28-1-64-36-62-29 2-46 17-54 41l-30-6c13-36 37-61 86-61" id="aY"/><g id="e"><use transform="matrix(0.05,0,0,0.05,0,0)" xlink:href="#aS"/><use transform="matrix(0.05,0,0,0.05,12,0)" xlink:href="#aT"/><use transform="matrix(0.05,0,0,0.05,24,0)" xlink:href="#aU"/><use transform="matrix(0.05,0,0,0.05,36.95,0)" xlink:href="#aS"/><use transform="matrix(0.05,0,0,0.05,48.95,0)" xlink:href="#aV"/><use transform="matrix(0.05,0,0,0.05,54.900000000000006,0)" xlink:href="#aW"/><use transform="matrix(0.05,0,0,0.05,67.85000000000001,0)" xlink:href="#aG"/><use transform="matrix(0.05,0,0,0.05,77.85000000000001,0)" xlink:href="#aX"/><use transform="matrix(0.05,0,0,0.05,89.2,0)" xlink:href="#aV"/><use transform="matrix(0.05,0,0,0.05,95.15,0)" xlink:href="#aY"/></g><path fill="#fff" d="M173 0L80-213 41 0H11l48-248h37l94 214 40-214h30L212 0h-39" id="aZ"/><path fill="#fff" d="M-28 44V31h207v13H-28" id="ba"/><path fill="#fff" d="M16-82c0-90 25-169 113-169 48 0 68 33 68 82C197-79 170 4 84 4 37 4 16-31 16-82zm30 5c0 32 11 55 40 55 69 0 76-79 80-149 2-32-10-55-39-55-69 0-81 81-81 149" id="bb"/><path fill="#fff" d="M149-56L138 0h-32l11-56H2l5-25 144-167h35L154-81h33l-5 25h-33zm-4-147L40-81h82" id="bc"/><path fill="#fff" d="M151-85c6-55-69-56-94-29H26l34-134h141l-5 27H84l-20 79c41-34 127-11 121 53C199 13 30 38 8-54l29-8C52 0 159-13 151-85" id="bd"/><path fill="#fff" d="M9 0l6-27h63l36-188-63 39 6-31 66-41h29L110-27h60l-5 27H9" id="be"/><path fill="#fff" d="M14 0l8-38h34L48 0H14" id="bf"/><g id="f"><use transform="matrix(0.05,0,0,0.05,0,0)" xlink:href="#aZ"/><use transform="matrix(0.05,0,0,0.05,12.950000000000001,0)" xlink:href="#aW"/><use transform="matrix(0.05,0,0,0.05,25.900000000000002,0)" xlink:href="#ba"/><use transform="matrix(0.05,0,0,0.05,35.900000000000006,0)" xlink:href="#bb"/><use transform="matrix(0.05,0,0,0.05,45.900000000000006,0)" xlink:href="#bc"/><use transform="matrix(0.05,0,0,0.05,55.900000000000006,0)" xlink:href="#bd"/><use transform="matrix(0.05,0,0,0.05,65.9,0)" xlink:href="#bd"/><use transform="matrix(0.05,0,0,0.05,75.9,0)" xlink:href="#be"/><use transform="matrix(0.05,0,0,0.05,85.9,0)" xlink:href="#aY"/><use transform="matrix(0.05,0,0,0.05,95.9,0)" xlink:href="#bf"/><use transform="matrix(0.05,0,0,0.05,100.9,0)" xlink:href="#aY"/></g><g id="g"><use transform="matrix(0.05,0,0,0.05,0,0)" xlink:href="#aG"/><use transform="matrix(0.05,0,0,0.05,10,0)" xlink:href="#aI"/></g><path fill="#fff" d="M219-77C219 17 104-2 11 0l48-248c73 2 169-15 169 57 0 38-24 54-60 60 29 5 51 21 51 54zm-26-111c0-44-62-31-105-33l-16 79c55 0 121 9 121-46zm-7 110c-1-49-69-36-119-38L50-27c61-1 137 12 136-51" id="bg"/><path fill="#fff" d="M14 0l48-248h34L48 0H14" id="bh"/><g id="h"><use transform="matrix(0.05,0,0,0.05,0,0)" xlink:href="#aZ"/><use transform="matrix(0.05,0,0,0.05,12.950000000000001,0)" xlink:href="#aW"/><use transform="matrix(0.05,0,0,0.05,25.900000000000002,0)" xlink:href="#bg"/><use transform="matrix(0.05,0,0,0.05,37.900000000000006,0)" xlink:href="#bh"/><use transform="matrix(0.05,0,0,0.05,42.900000000000006,0)" xlink:href="#bf"/></g><path fill="#fff" d="M51-54c-9 22 5 41 31 30L79-1C43 14 10-4 19-52l22-115H19l5-23h22l19-43h21l-9 43h35l-4 23H73" id="bi"/><g id="i"><use transform="matrix(0.05,0,0,0.05,0,0)" xlink:href="#aS"/><use transform="matrix(0.05,0,0,0.05,12,0)" xlink:href="#aN"/><use transform="matrix(0.05,0,0,0.05,22,0)" xlink:href="#aJ"/><use transform="matrix(0.05,0,0,0.05,25.950000000000003,0)" xlink:href="#aN"/><use transform="matrix(0.05,0,0,0.05,35.95,0)" xlink:href="#aP"/><use transform="matrix(0.05,0,0,0.05,44.95,0)" xlink:href="#bi"/></g><path fill="#fff" d="M55-144c13 50 104 24 104 88C159 21 15 23 1-39l26-10c6 40 102 42 102-4-13-50-104-23-104-87 0-71 143-71 148-8l-29 4c-5-35-85-37-89 0" id="bj"/><path fill="#fff" d="M133-28C103 26-5 8 13-77c13-62 24-115 90-117 29-1 46 15 56 35 2-12 6-24 8-34h31L144 75h-31zM45-64c-2 27 10 43 35 43 54-1 69-50 69-103 0-29-15-46-42-46-53-1-58 58-62 106" id="bk"/><path fill="#fff" d="M67 3c-93-2-31-127-26-193h32L48-50c-3 39 53 32 70 12 30-34 30-101 43-152h32L157 0h-30c1-10 6-24 4-33-14 20-29 37-64 36" id="bl"/><g id="j"><use transform="matrix(0.05,0,0,0.05,0,0)" xlink:href="#bj"/><use transform="matrix(0.05,0,0,0.05,9,0)" xlink:href="#aN"/><use transform="matrix(0.05,0,0,0.05,19,0)" xlink:href="#bk"/><use transform="matrix(0.05,0,0,0.05,29,0)" xlink:href="#bl"/><use transform="matrix(0.05,0,0,0.05,39,0)" xlink:href="#aN"/><use transform="matrix(0.05,0,0,0.05,49,0)" xlink:href="#aI"/><use transform="matrix(0.05,0,0,0.05,59,0)" xlink:href="#aP"/><use transform="matrix(0.05,0,0,0.05,68,0)" xlink:href="#aN"/></g><g id="k"><use transform="matrix(0.05,0,0,0.05,0,0)" xlink:href="#aK"/><use transform="matrix(0.05,0,0,0.05,10,0)" xlink:href="#aP"/><use transform="matrix(0.05,0,0,0.05,19,0)" xlink:href="#aM"/><use transform="matrix(0.05,0,0,0.05,24.95,0)" xlink:href="#aG"/><use transform="matrix(0.05,0,0,0.05,34.95,0)" xlink:href="#bj"/><use transform="matrix(0.05,0,0,0.05,43.95,0)" xlink:href="#bj"/></g><path fill="#fff" d="M67-158c15-20 31-36 64-36 94 0 33 127 27 194h-32l25-140c3-38-53-32-70-12C52-117 51-51 37 0H6l51-261h31" id="bm"/><g id="l"><use transform="matrix(0.05,0,0,0.05,0,0)" xlink:href="#bi"/><use transform="matrix(0.05,0,0,0.05,5,0)" xlink:href="#bm"/><use transform="matrix(0.05,0,0,0.05,15,0)" xlink:href="#aN"/></g><path fill="#fff" d="M89 0H52L20-190h33L74-25l89-165h34" id="bn"/><g id="m"><use transform="matrix(0.05,0,0,0.05,0,0)" xlink:href="#aP"/><use transform="matrix(0.05,0,0,0.05,9,0)" xlink:href="#aJ"/><use transform="matrix(0.05,0,0,0.05,12.949999999999998,0)" xlink:href="#aN"/><use transform="matrix(0.05,0,0,0.05,22.95,0)" xlink:href="#aK"/><use transform="matrix(0.05,0,0,0.05,32.95,0)" xlink:href="#bn"/><use transform="matrix(0.05,0,0,0.05,41.95,0)" xlink:href="#aK"/><use transform="matrix(0.05,0,0,0.05,51.95,0)" xlink:href="#aQ"/><use transform="matrix(0.05,0,0,0.05,61.95,0)" xlink:href="#aN"/></g><path fill="#fff" d="M50-231l6-30h32l-6 30H50zM6 0l37-190h31L37 0H6" id="bo"/><g id="n"><use transform="matrix(0.05,0,0,0.05,0,0)" xlink:href="#bj"/><use transform="matrix(0.05,0,0,0.05,9,0)" xlink:href="#bo"/><use transform="matrix(0.05,0,0,0.05,12.949999999999998,0)" xlink:href="#bi"/><use transform="matrix(0.05,0,0,0.05,17.95,0)" xlink:href="#aN"/><use transform="matrix(0.05,0,0,0.05,27.950000000000003,0)" xlink:href="#bf"/></g><path fill="#a9afb8" d="M76-208v77h127v40H76V0H24v-248h183v40H76" id="bp"/><path fill="#a9afb8" d="M25 0v-261h50V0H25" id="bq"/><path fill="#a9afb8" d="M110-194c64 0 96 36 96 99 0 64-35 99-97 99-61 0-95-36-95-99 0-62 34-99 96-99zm-1 164c35 0 45-28 45-65 0-40-10-65-43-65-34 0-45 26-45 65 0 36 10 65 43 65" id="br"/><path fill="#a9afb8" d="M231 0h-52l-39-155L100 0H48L-1-190h46L77-45c9-52 24-97 36-145h53l37 145 32-145h46" id="bs"/><path fill="#a9afb8" d="M190-63c-7 42-38 67-86 67-59 0-84-38-90-98-12-110 154-137 174-36l-49 2c-2-19-15-32-35-32-30 0-35 28-38 64-6 74 65 87 74 30" id="bt"/><path fill="#a9afb8" d="M114-157C55-157 80-60 75 0H25v-261h50l-1 109c12-26 28-41 61-42 86-1 58 113 63 194h-50c-7-57 23-157-34-157" id="bu"/><path fill="#a9afb8" d="M133-34C117-15 103 5 69 4 32 3 11-16 11-54c-1-60 55-63 116-61 1-26-3-47-28-47-18 1-26 9-28 27l-52-2c7-38 36-58 82-57s74 22 75 68l1 82c-1 14 12 18 25 15v27c-30 8-71 5-69-32zm-48 3c29 0 43-24 42-57-32 0-66-3-65 30 0 17 8 27 23 27" id="bv"/><path fill="#a9afb8" d="M135-150c-39-12-60 13-60 57V0H25l-1-190h47c2 13-1 29 3 40 6-28 27-53 61-41v41" id="bw"/><path fill="#a9afb8" d="M115-3C79 11 28 4 28-45v-112H4v-33h27l15-45h31v45h36v33H77v99c-1 23 16 31 38 25v30" id="bx"/><g id="o"><use transform="matrix(0.0728395061728395,0,0,0.0728395061728395,0,0)" xlink:href="#bp"/><use transform="matrix(0.0728395061728395,0,0,0.0728395061728395,15.95185185185185,0)" xlink:href="#bq"/><use transform="matrix(0.0728395061728395,0,0,0.0728395061728395,23.235802469135802,0)" xlink:href="#br"/><use transform="matrix(0.0728395061728395,0,0,0.0728395061728395,39.187654320987654,0)" xlink:href="#bs"/><use transform="matrix(0.0728395061728395,0,0,0.0728395061728395,59.582716049382704,0)" xlink:href="#bt"/><use transform="matrix(0.0728395061728395,0,0,0.0728395061728395,74.15061728395061,0)" xlink:href="#bu"/><use transform="matrix(0.0728395061728395,0,0,0.0728395061728395,90.10246913580247,0)" xlink:href="#bv"/><use transform="matrix(0.0728395061728395,0,0,0.0728395061728395,104.67037037037036,0)" xlink:href="#bw"/><use transform="matrix(0.0728395061728395,0,0,0.0728395061728395,114.8679012345679,0)" xlink:href="#bx"/></g><path fill="#a9afb8" d="M169-182c-1-43-94-46-97-3 18 66 151 10 154 114 3 95-165 93-204 36-6-8-10-19-12-30l50-8c3 46 112 56 116 5-17-69-150-10-154-114-4-87 153-88 188-35 5 8 8 18 10 28" id="by"/><path fill="#a9afb8" d="M199 0l-22-63H83L61 0H9l90-248h61L250 0h-51zm-33-102l-36-108c-10 38-24 72-36 108h72" id="bz"/><path fill="#a9afb8" d="M240-174c0 40-23 61-54 70L253 0h-59l-57-94H76V0H24v-248c93 4 217-23 216 74zM76-134c48-2 112 12 112-38 0-48-66-32-112-35v73" id="bA"/><path fill="#a9afb8" d="M14-72v-43h91v43H14" id="bB"/><path fill="#a9afb8" d="M67-125c0 53 21 87 73 88 37 1 54-22 65-47l45 17C233-25 199 4 140 4 58 4 20-42 15-125 8-235 124-281 211-232c18 10 29 29 36 50l-46 12c-8-25-30-41-62-41-52 0-71 34-72 86" id="bC"/><path fill="#a9afb8" d="M147 0H94L2-248h55l64 206c17-72 42-137 63-206h54" id="bD"/><path fill="#a9afb8" d="M182-182c0 78-84 86-111 141h115V0H12c-6-101 99-100 120-180 1-22-12-31-33-32-23 0-32 14-35 34l-49-3c5-45 32-70 84-70 51 0 83 22 83 69" id="bE"/><g id="p"><use transform="matrix(0.0728395061728395,0,0,0.0728395061728395,0,0)" xlink:href="#by"/><use transform="matrix(0.0728395061728395,0,0,0.0728395061728395,17.48148148148148,0)" xlink:href="#bz"/><use transform="matrix(0.0728395061728395,0,0,0.0728395061728395,36.34691358024691,0)" xlink:href="#bA"/><use transform="matrix(0.0728395061728395,0,0,0.0728395061728395,55.212345679012344,0)" xlink:href="#by"/><use transform="matrix(0.0728395061728395,0,0,0.0728395061728395,72.69382716049383,0)" xlink:href="#bB"/><use transform="matrix(0.0728395061728395,0,0,0.0728395061728395,81.36172839506173,0)" xlink:href="#bC"/><use transform="matrix(0.0728395061728395,0,0,0.0728395061728395,100.22716049382717,0)" xlink:href="#br"/><use transform="matrix(0.0728395061728395,0,0,0.0728395061728395,116.17901234567903,0)" xlink:href="#bD"/><use transform="matrix(0.0728395061728395,0,0,0.0728395061728395,132.20370370370372,0)" xlink:href="#bB"/><use transform="matrix(0.0728395061728395,0,0,0.0728395061728395,140.87160493827162,0)" xlink:href="#bE"/></g><path fill="#a9afb8" d="M175 0L67-191c6 58 2 128 3 191H24v-248h59L193-55c-6-58-2-129-3-193h46V0h-61" id="bF"/><path fill="#a9afb8" d="M-4 44V30h207v14H-4" id="bG"/><path fill="#a9afb8" d="M101-251c68 0 84 54 84 127C185-50 166 4 99 4S15-52 14-124c-1-75 17-127 87-127zm-1 216c37-5 36-46 36-89s4-89-36-89c-39 0-36 45-36 89 0 43-3 85 36 89" id="bH"/><path fill="#a9afb8" d="M165-50V0h-47v-50H5v-38l105-160h55v161h33v37h-33zm-47-37l2-116L46-87h72" id="bI"/><path fill="#a9afb8" d="M139-81c0-46-55-55-73-27H18l9-140h149v37H72l-4 63c44-38 133-4 122 66C201 21 21 35 11-62l49-4c5 18 15 30 39 30 26 0 40-18 40-45" id="bJ"/><path fill="#a9afb8" d="M23 0v-37h61v-169l-59 37v-38l62-41h46v211h57V0H23" id="bK"/><path fill="#a9afb8" d="M24 0v-54h51V0H24" id="bL"/><g id="q"><use transform="matrix(0.0728395061728395,0,0,0.0728395061728395,0,0)" xlink:href="#bF"/><use transform="matrix(0.0728395061728395,0,0,0.0728395061728395,18.86543209876543,0)" xlink:href="#bC"/><use transform="matrix(0.0728395061728395,0,0,0.0728395061728395,37.73086419753086,0)" xlink:href="#bG"/><use transform="matrix(0.0728395061728395,0,0,0.0728395061728395,52.29876543209876,0)" xlink:href="#bH"/><use transform="matrix(0.0728395061728395,0,0,0.0728395061728395,66.86666666666666,0)" xlink:href="#bI"/><use transform="matrix(0.0728395061728395,0,0,0.0728395061728395,81.43456790123457,0)" xlink:href="#bJ"/><use transform="matrix(0.0728395061728395,0,0,0.0728395061728395,96.00246913580246,0)" xlink:href="#bJ"/><use transform="matrix(0.0728395061728395,0,0,0.0728395061728395,110.57037037037036,0)" xlink:href="#bK"/><use transform="matrix(0.0728395061728395,0,0,0.0728395061728395,125.13827160493825,0)" xlink:href="#bE"/><use transform="matrix(0.0728395061728395,0,0,0.0728395061728395,139.70617283950617,0)" xlink:href="#bL"/><use transform="matrix(0.0728395061728395,0,0,0.0728395061728395,146.99012345679012,0)" xlink:href="#bE"/></g><path fill="#a9afb8" d="M121-226c-27-7-43 5-38 36h38v33H83V0H34v-157H6v-33h28c-9-59 32-81 87-68v32" id="bM"/><g id="r"><use transform="matrix(0.0728395061728395,0,0,0.0728395061728395,0,0)" xlink:href="#bM"/><use transform="matrix(0.0728395061728395,0,0,0.0728395061728395,8.667901234567902,0)" xlink:href="#br"/><use transform="matrix(0.0728395061728395,0,0,0.0728395061728395,24.619753086419752,0)" xlink:href="#bw"/></g><path fill="#a9afb8" d="M135-194c53 0 70 44 70 98 0 56-19 98-73 100-31 1-45-17-59-34 3 33 2 69 2 105H25l-1-265h48c2 10 0 23 3 31 11-24 29-35 60-35zM114-30c33 0 39-31 40-66 0-38-9-64-40-64-56 0-55 130 0 130" id="bN"/><path fill="#a9afb8" d="M185-48c-13 30-37 53-82 52C43 2 14-33 14-96s30-98 90-98c62 0 83 45 84 108H66c0 31 8 55 39 56 18 0 30-7 34-22zm-45-69c5-46-57-63-70-21-2 6-4 13-4 21h74" id="bO"/><path fill="#a9afb8" d="M88-194c31-1 46 15 58 34l-1-101h50l1 261h-48c-2-10 0-23-3-31C134-8 116 4 84 4 32 4 16-41 15-95c0-56 19-97 73-99zm17 164c33 0 40-30 41-66 1-37-9-64-41-64s-38 30-39 65c0 43 13 65 39 65" id="bP"/><path fill="#a9afb8" d="M25-224v-37h50v37H25zM25 0v-190h50V0H25" id="bQ"/><path fill="#a9afb8" d="M137-138c1-29-70-34-71-4 15 46 118 7 119 86 1 83-164 76-172 9l43-7c4 19 20 25 44 25 33 8 57-30 24-41C81-84 22-81 20-136c-2-80 154-74 161-7" id="bR"/><g id="s"><use transform="matrix(0.0728395061728395,0,0,0.0728395061728395,0,0)" xlink:href="#bN"/><use transform="matrix(0.0728395061728395,0,0,0.0728395061728395,15.95185185185185,0)" xlink:href="#bw"/><use transform="matrix(0.0728395061728395,0,0,0.0728395061728395,26.14938271604938,0)" xlink:href="#bO"/><use transform="matrix(0.0728395061728395,0,0,0.0728395061728395,40.717283950617286,0)" xlink:href="#bP"/><use transform="matrix(0.0728395061728395,0,0,0.0728395061728395,56.66913580246913,0)" xlink:href="#bQ"/><use transform="matrix(0.0728395061728395,0,0,0.0728395061728395,63.95308641975308,0)" xlink:href="#bR"/><use transform="matrix(0.0728395061728395,0,0,0.0728395061728395,78.52098765432098,0)" xlink:href="#bN"/><use transform="matrix(0.0728395061728395,0,0,0.0728395061728395,94.47283950617283,0)" xlink:href="#br"/><use transform="matrix(0.0728395061728395,0,0,0.0728395061728395,110.42469135802469,0)" xlink:href="#bR"/><use transform="matrix(0.0728395061728395,0,0,0.0728395061728395,124.99259259259259,0)" xlink:href="#bv"/><use transform="matrix(0.0728395061728395,0,0,0.0728395061728395,139.56049382716049,0)" xlink:href="#bq"/></g><g id="t"><use transform="matrix(0.0728395061728395,0,0,0.0728395061728395,0,0)" xlink:href="#bM"/><use transform="matrix(0.0728395061728395,0,0,0.0728395061728395,8.667901234567902,0)" xlink:href="#br"/><use transform="matrix(0.0728395061728395,0,0,0.0728395061728395,24.619753086419752,0)" xlink:href="#bw"/></g><path fill="#a9afb8" d="M195-6C206 82 75 100 31 46c-4-6-6-13-8-21l49-6c3 16 16 24 34 25 40 0 42-37 40-79-11 22-30 35-61 35-53 0-70-43-70-97 0-56 18-96 73-97 30 0 46 14 59 34l2-30h47zm-90-29c32 0 41-27 41-63 0-35-9-62-40-62-32 0-39 29-40 63 0 36 9 62 39 62" id="bS"/><path fill="#a9afb8" d="M135-194c87-1 58 113 63 194h-50c-7-57 23-157-34-157-59 0-34 97-39 157H25l-1-190h47c2 12-1 28 3 38 12-26 28-41 61-42" id="bT"/><g id="u"><use transform="matrix(0.0728395061728395,0,0,0.0728395061728395,0,0)" xlink:href="#bN"/><use transform="matrix(0.0728395061728395,0,0,0.0728395061728395,15.95185185185185,0)" xlink:href="#bv"/><use transform="matrix(0.0728395061728395,0,0,0.0728395061728395,30.51975308641975,0)" xlink:href="#bx"/><use transform="matrix(0.0728395061728395,0,0,0.0728395061728395,39.187654320987654,0)" xlink:href="#bu"/><use transform="matrix(0.0728395061728395,0,0,0.0728395061728395,55.1395061728395,0)" xlink:href="#br"/><use transform="matrix(0.0728395061728395,0,0,0.0728395061728395,71.09135802469136,0)" xlink:href="#bS"/><use transform="matrix(0.0728395061728395,0,0,0.0728395061728395,87.0432098765432,0)" xlink:href="#bO"/><use transform="matrix(0.0728395061728395,0,0,0.0728395061728395,101.61111111111111,0)" xlink:href="#bT"/><use transform="matrix(0.0728395061728395,0,0,0.0728395061728395,117.56296296296297,0)" xlink:href="#bO"/><use transform="matrix(0.0728395061728395,0,0,0.0728395061728395,132.13086419753088,0)" xlink:href="#bR"/><use transform="matrix(0.0728395061728395,0,0,0.0728395061728395,146.69876543209878,0)" xlink:href="#bQ"/><use transform="matrix(0.0728395061728395,0,0,0.0728395061728395,153.98271604938276,0)" xlink:href="#bR"/></g><path fill="#a9afb8" d="M240 0l2-218c-23 76-54 145-80 218h-23L58-218 59 0H30v-248h44l77 211c21-75 51-140 76-211h43V0h-30" id="bU"/><path fill="#a9afb8" d="M24-231v-30h32v30H24zM24 0v-190h32V0H24" id="bV"/><path fill="#a9afb8" d="M96-169c-40 0-48 33-48 73s9 75 48 75c24 0 41-14 43-38l32 2c-6 37-31 61-74 61-59 0-76-41-82-99-10-93 101-131 147-64 4 7 5 14 7 22l-32 3c-4-21-16-35-41-35" id="bW"/><path fill="#a9afb8" d="M106-169C34-169 62-67 57 0H25v-261h32l-1 103c12-21 28-36 61-36 89 0 53 116 60 194h-32v-121c2-32-8-49-39-48" id="bX"/><path fill="#a9afb8" d="M100-194c63 0 86 42 84 106H49c0 40 14 67 53 68 26 1 43-12 49-29l28 8c-11 28-37 45-77 45C44 4 14-33 15-96c1-61 26-98 85-98zm52 81c6-60-76-77-97-28-3 7-6 17-6 28h103" id="bY"/><path fill="#a9afb8" d="M24 0v-261h32V0H24" id="bZ"/><g id="v"><use transform="matrix(0.04248971193415638,0,0,0.04248971193415638,0,0)" xlink:href="#bU"/><use transform="matrix(0.04248971193415638,0,0,0.04248971193415638,12.704423868312757,0)" xlink:href="#bV"/><use transform="matrix(0.04248971193415638,0,0,0.04248971193415638,16.06111111111111,0)" xlink:href="#bW"/><use transform="matrix(0.04248971193415638,0,0,0.04248971193415638,23.70925925925926,0)" xlink:href="#bX"/><use transform="matrix(0.04248971193415638,0,0,0.04248971193415638,32.20720164609053,0)" xlink:href="#bY"/><use transform="matrix(0.04248971193415638,0,0,0.04248971193415638,40.70514403292181,0)" xlink:href="#bZ"/><use transform="matrix(0.04248971193415638,0,0,0.04248971193415638,44.06183127572016,0)" xlink:href="#bY"/></g><path fill="#a9afb8" d="M212-179c-10-28-35-45-73-45-59 0-87 40-87 99 0 60 29 101 89 101 43 0 62-24 78-52l27 14C228-24 195 4 139 4 59 4 22-46 18-125c-6-104 99-153 187-111 19 9 31 26 39 46" id="ca"/><path fill="#a9afb8" d="M141-36C126-15 110 5 73 4 37 3 15-17 15-53c-1-64 63-63 125-63 3-35-9-54-41-54-24 1-41 7-42 31l-33-3c5-37 33-52 76-52 45 0 72 20 72 64v82c-1 20 7 32 28 27v20c-31 9-61-2-59-35zM48-53c0 20 12 33 32 33 41-3 63-29 60-74-43 2-92-5-92 41" id="cb"/><path fill="#a9afb8" d="M115-194c55 1 70 41 70 98S169 2 115 4C84 4 66-9 55-30l1 105H24l-1-265h31l2 30c10-21 28-34 59-34zm-8 174c40 0 45-34 45-75s-6-73-45-74c-42 0-51 32-51 76 0 43 10 73 51 73" id="cc"/><g id="w"><use transform="matrix(0.04248971193415638,0,0,0.04248971193415638,0,0)" xlink:href="#ca"/><use transform="matrix(0.04248971193415638,0,0,0.04248971193415638,11.004835390946502,0)" xlink:href="#cb"/><use transform="matrix(0.04248971193415638,0,0,0.04248971193415638,19.502777777777776,0)" xlink:href="#cc"/><use transform="matrix(0.04248971193415638,0,0,0.04248971193415638,28.000720164609046,0)" xlink:href="#cc"/><use transform="matrix(0.04248971193415638,0,0,0.04248971193415638,36.498662551440326,0)" xlink:href="#bY"/><use transform="matrix(0.04248971193415638,0,0,0.04248971193415638,44.9966049382716,0)" xlink:href="#bZ"/><use transform="matrix(0.04248971193415638,0,0,0.04248971193415638,48.35329218106995,0)" xlink:href="#bW"/><use transform="matrix(0.04248971193415638,0,0,0.04248971193415638,56.00144032921809,0)" xlink:href="#bX"/><use transform="matrix(0.04248971193415638,0,0,0.04248971193415638,64.49938271604937,0)" xlink:href="#bV"/></g><path fill="#a9afb8" d="M32 76v-337h29V76H32" id="cd"/><use transform="matrix(0.04248971193415638,0,0,0.04248971193415638,0,0)" xlink:href="#cd" id="x"/><path fill="#a9afb8" d="M153-248C145-148 188 4 80 4 36 3 13-21 6-62l32-5c4 25 16 42 43 43 27 0 39-20 39-49v-147H72v-28h81" id="ce"/><path fill="#a9afb8" d="M84 4C-5 8 30-112 23-190h32v120c0 31 7 50 39 49 72-2 45-101 50-169h31l1 190h-30c-1-10 1-25-2-33-11 22-28 36-60 37" id="cf"/><path fill="#a9afb8" d="M179-190L93 31C79 59 56 82 12 73V49c39 6 53-20 64-50L1-190h34L92-34l54-156h33" id="cg"/><g id="y"><use transform="matrix(0.04248971193415638,0,0,0.04248971193415638,0,0)" xlink:href="#ce"/><use transform="matrix(0.04248971193415638,0,0,0.04248971193415638,7.648148148148148,0)" xlink:href="#cf"/><use transform="matrix(0.04248971193415638,0,0,0.04248971193415638,16.14609053497942,0)" xlink:href="#bZ"/><use transform="matrix(0.04248971193415638,0,0,0.04248971193415638,19.502777777777776,0)" xlink:href="#cg"/></g><path fill="#a9afb8" d="M27 0v-27h64v-190l-56 39v-29l58-41h29v221h61V0H27" id="ch"/><path fill="#a9afb8" d="M126-127c33 6 58 20 58 59 0 88-139 92-164 29-3-8-5-16-6-25l32-3c6 27 21 44 54 44 32 0 52-15 52-46 0-38-36-46-79-43v-28c39 1 72-4 72-42 0-27-17-43-46-43-28 0-47 15-49 41l-32-3c6-42 35-63 81-64 48-1 79 21 79 65 0 36-21 52-52 59" id="ci"/><path fill="#a9afb8" d="M68-38c1 34 0 65-14 84H32c9-13 17-26 17-46H33v-38h35" id="cj"/><g id="z"><use transform="matrix(0.04248971193415638,0,0,0.04248971193415638,0,0)" xlink:href="#ch"/><use transform="matrix(0.04248971193415638,0,0,0.04248971193415638,8.497942386831275,0)" xlink:href="#ci"/><use transform="matrix(0.04248971193415638,0,0,0.04248971193415638,16.99588477366255,0)" xlink:href="#cj"/></g><path fill="#a9afb8" d="M101-251c82-7 93 87 43 132L82-64C71-53 59-42 53-27h129V0H18c2-99 128-94 128-182 0-28-16-43-45-43s-46 15-49 41l-32-3c6-41 34-60 81-64" id="ck"/><path fill="#a9afb8" d="M101-251c68 0 85 55 85 127S166 4 100 4C33 4 14-52 14-124c0-73 17-127 87-127zm-1 229c47 0 54-49 54-102s-4-102-53-102c-51 0-55 48-55 102 0 53 5 102 54 102" id="cl"/><g id="A"><use transform="matrix(0.04248971193415638,0,0,0.04248971193415638,0,0)" xlink:href="#ck"/><use transform="matrix(0.04248971193415638,0,0,0.04248971193415638,8.497942386831275,0)" xlink:href="#cl"/><use transform="matrix(0.04248971193415638,0,0,0.04248971193415638,16.99588477366255,0)" xlink:href="#ck"/><use transform="matrix(0.04248971193415638,0,0,0.04248971193415638,25.493827160493822,0)" xlink:href="#cl"/></g><path fill="#fff" d="M11 0l48-248h184l-5 28H87l-15 79h140l-5 27H67L50-27h158l-5 27H11" id="cm"/><g id="B"><use transform="matrix(0.05,0,0,0.05,0,0)" xlink:href="#cm"/><use transform="matrix(0.05,0,0,0.05,12,0)" xlink:href="#bj"/><use transform="matrix(0.05,0,0,0.05,21,0)" xlink:href="#bi"/><use transform="matrix(0.05,0,0,0.05,26,0)" xlink:href="#bo"/><use transform="matrix(0.05,0,0,0.05,29.950000000000003,0)" xlink:href="#aR"/><use transform="matrix(0.05,0,0,0.05,44.9,0)" xlink:href="#aK"/><use transform="matrix(0.05,0,0,0.05,54.900000000000006,0)" xlink:href="#bi"/><use transform="matrix(0.05,0,0,0.05,59.900000000000006,0)" xlink:href="#aN"/></g><g id="C"><use transform="matrix(0.05,0,0,0.05,0,0)" xlink:href="#aM"/><use transform="matrix(0.05,0,0,0.05,5.95,0)" xlink:href="#aN"/><use transform="matrix(0.05,0,0,0.05,15.949999999999998,0)" xlink:href="#bj"/><use transform="matrix(0.05,0,0,0.05,24.95,0)" xlink:href="#bl"/><use transform="matrix(0.05,0,0,0.05,34.95,0)" xlink:href="#aJ"/><use transform="matrix(0.05,0,0,0.05,38.900000000000006,0)" xlink:href="#bi"/><use transform="matrix(0.05,0,0,0.05,43.900000000000006,0)" xlink:href="#bj"/></g><g id="D"><use transform="matrix(0.05,0,0,0.05,0,0)" xlink:href="#aW"/><use transform="matrix(0.05,0,0,0.05,12.950000000000001,0)" xlink:href="#bm"/><use transform="matrix(0.05,0,0,0.05,22.950000000000003,0)" xlink:href="#aK"/><use transform="matrix(0.05,0,0,0.05,32.95,0)" xlink:href="#aI"/><use transform="matrix(0.05,0,0,0.05,42.95,0)" xlink:href="#aQ"/><use transform="matrix(0.05,0,0,0.05,52.95,0)" xlink:href="#aN"/></g><g id="E"><use transform="matrix(0.05,0,0,0.05,0,0)" xlink:href="#bj"/><use transform="matrix(0.05,0,0,0.05,9,0)" xlink:href="#aG"/><use transform="matrix(0.05,0,0,0.05,19,0)" xlink:href="#aR"/><use transform="matrix(0.05,0,0,0.05,33.95,0)" xlink:href="#aN"/></g><path fill="#fff" d="M67-162c32-53 139-36 121 50C175-51 163 2 97 4 68 4 52-11 42-31 38 6 28 39 22 75H-9l50-265h29c-1 10 0 20-3 28zm89 36c0-26-10-43-35-43-54 0-67 50-69 103-1 29 14 45 42 46 53 0 62-58 62-106" id="cn"/><path fill="#fff" d="M68-162c25-46 127-43 121 31C183-60 169 1 98 4 69 5 53-11 43-31L36 0H5l52-261h31zm88 36c2-27-9-43-34-43-55 0-70 51-70 103 0 29 15 45 43 46 52 0 58-58 61-106" id="co"/><g id="F"><use transform="matrix(0.05,0,0,0.05,0,0)" xlink:href="#aK"/><use transform="matrix(0.05,0,0,0.05,10,0)" xlink:href="#aJ"/><use transform="matrix(0.05,0,0,0.05,13.949999999999998,0)" xlink:href="#cn"/><use transform="matrix(0.05,0,0,0.05,23.95,0)" xlink:href="#bm"/><use transform="matrix(0.05,0,0,0.05,33.95,0)" xlink:href="#aK"/><use transform="matrix(0.05,0,0,0.05,43.95,0)" xlink:href="#co"/><use transform="matrix(0.05,0,0,0.05,53.95,0)" xlink:href="#aN"/><use transform="matrix(0.05,0,0,0.05,63.95,0)" xlink:href="#bi"/></g><g id="G"><use transform="matrix(0.05,0,0,0.05,0,0)" xlink:href="#aK"/><use transform="matrix(0.05,0,0,0.05,10,0)" xlink:href="#aI"/><use transform="matrix(0.05,0,0,0.05,20,0)" xlink:href="#aL"/></g><path fill="#fff" d="M198-190L69 30C53 58 25 83-20 72c4-11-1-27 19-22 33-1 43-29 59-52L20-190h32L79-34l84-156h35" id="cp"/><g id="H"><use transform="matrix(0.05,0,0,0.05,0,0)" xlink:href="#bi"/><use transform="matrix(0.05,0,0,0.05,5,0)" xlink:href="#aM"/><use transform="matrix(0.05,0,0,0.05,10.95,0)" xlink:href="#cp"/></g><g id="I"><use transform="matrix(0.05,0,0,0.05,0,0)" xlink:href="#bi"/><use transform="matrix(0.05,0,0,0.05,5,0)" xlink:href="#aG"/></g><g id="J"><use transform="matrix(0.05,0,0,0.05,0,0)" xlink:href="#aP"/><use transform="matrix(0.05,0,0,0.05,9,0)" xlink:href="#aM"/><use transform="matrix(0.05,0,0,0.05,14.949999999999998,0)" xlink:href="#aN"/><use transform="matrix(0.05,0,0,0.05,24.95,0)" xlink:href="#aK"/><use transform="matrix(0.05,0,0,0.05,34.95,0)" xlink:href="#bi"/><use transform="matrix(0.05,0,0,0.05,39.95,0)" xlink:href="#aN"/></g><g id="K"><use transform="matrix(0.05,0,0,0.05,0,0)" xlink:href="#aK"/><use transform="matrix(0.05,0,0,0.05,10,0)" xlink:href="#aI"/></g><g id="L"><use transform="matrix(0.05,0,0,0.05,0,0)" xlink:href="#cn"/><use transform="matrix(0.05,0,0,0.05,10,0)" xlink:href="#aK"/><use transform="matrix(0.05,0,0,0.05,20,0)" xlink:href="#bi"/><use transform="matrix(0.05,0,0,0.05,25,0)" xlink:href="#bm"/><use transform="matrix(0.05,0,0,0.05,35,0)" xlink:href="#aG"/><use transform="matrix(0.05,0,0,0.05,45,0)" xlink:href="#aQ"/><use transform="matrix(0.05,0,0,0.05,55,0)" xlink:href="#aN"/><use transform="matrix(0.05,0,0,0.05,65,0)" xlink:href="#aI"/><use transform="matrix(0.05,0,0,0.05,75,0)" xlink:href="#bo"/><use transform="matrix(0.05,0,0,0.05,78.95,0)" xlink:href="#aP"/></g><path fill="#fff" d="M58-38C53-5 46 26 28 46H7C19 32 27 18 32 0H17l7-38h34" id="cq"/><g id="M"><use transform="matrix(0.05,0,0,0.05,0,0)" xlink:href="#bj"/><use transform="matrix(0.05,0,0,0.05,9,0)" xlink:href="#aN"/><use transform="matrix(0.05,0,0,0.05,19,0)" xlink:href="#bk"/><use transform="matrix(0.05,0,0,0.05,29,0)" xlink:href="#bl"/><use transform="matrix(0.05,0,0,0.05,39,0)" xlink:href="#aN"/><use transform="matrix(0.05,0,0,0.05,49,0)" xlink:href="#aI"/><use transform="matrix(0.05,0,0,0.05,59,0)" xlink:href="#aP"/><use transform="matrix(0.05,0,0,0.05,68,0)" xlink:href="#aN"/><use transform="matrix(0.05,0,0,0.05,78,0)" xlink:href="#cq"/></g><g id="N"><use transform="matrix(0.05,0,0,0.05,0,0)" xlink:href="#co"/><use transform="matrix(0.05,0,0,0.05,10,0)" xlink:href="#aK"/><use transform="matrix(0.05,0,0,0.05,20,0)" xlink:href="#bj"/><use transform="matrix(0.05,0,0,0.05,29,0)" xlink:href="#aN"/><use transform="matrix(0.05,0,0,0.05,39,0)" xlink:href="#aL"/></g><g id="O"><use transform="matrix(0.05,0,0,0.05,0,0)" xlink:href="#bo"/><use transform="matrix(0.05,0,0,0.05,3.95,0)" xlink:href="#aL"/><use transform="matrix(0.05,0,0,0.05,13.949999999999998,0)" xlink:href="#aN"/><use transform="matrix(0.05,0,0,0.05,23.95,0)" xlink:href="#aK"/><use transform="matrix(0.05,0,0,0.05,33.95,0)" xlink:href="#bj"/></g><g id="P"><use transform="matrix(0.05,0,0,0.05,0,0)" xlink:href="#aK"/><use transform="matrix(0.05,0,0,0.05,10,0)" xlink:href="#aM"/><use transform="matrix(0.05,0,0,0.05,15.949999999999998,0)" xlink:href="#bi"/><use transform="matrix(0.05,0,0,0.05,20.95,0)" xlink:href="#bo"/><use transform="matrix(0.05,0,0,0.05,24.9,0)" xlink:href="#aP"/><use transform="matrix(0.05,0,0,0.05,33.9,0)" xlink:href="#aJ"/><use transform="matrix(0.05,0,0,0.05,37.85,0)" xlink:href="#aN"/><use transform="matrix(0.05,0,0,0.05,47.85,0)" xlink:href="#cq"/></g><g id="Q"><use transform="matrix(0.05,0,0,0.05,0,0)" xlink:href="#aP"/><use transform="matrix(0.05,0,0,0.05,9,0)" xlink:href="#aJ"/><use transform="matrix(0.05,0,0,0.05,12.949999999999998,0)" xlink:href="#aG"/><use transform="matrix(0.05,0,0,0.05,22.95,0)" xlink:href="#bj"/><use transform="matrix(0.05,0,0,0.05,31.950000000000003,0)" xlink:href="#aN"/></g><g id="R"><use transform="matrix(0.05,0,0,0.05,0,0)" xlink:href="#aK"/><use transform="matrix(0.05,0,0,0.05,10,0)" xlink:href="#bj"/></g><g id="S"><use transform="matrix(0.05,0,0,0.05,0,0)" xlink:href="#cn"/><use transform="matrix(0.05,0,0,0.05,10,0)" xlink:href="#aG"/><use transform="matrix(0.05,0,0,0.05,20,0)" xlink:href="#bj"/><use transform="matrix(0.05,0,0,0.05,29,0)" xlink:href="#bj"/><use transform="matrix(0.05,0,0,0.05,38,0)" xlink:href="#bo"/><use transform="matrix(0.05,0,0,0.05,41.95,0)" xlink:href="#co"/><use transform="matrix(0.05,0,0,0.05,51.95,0)" xlink:href="#aJ"/><use transform="matrix(0.05,0,0,0.05,55.900000000000006,0)" xlink:href="#aN"/></g><g id="T"><use transform="matrix(0.05,0,0,0.05,0,0)" xlink:href="#bi"/><use transform="matrix(0.05,0,0,0.05,5,0)" xlink:href="#aG"/></g><g id="U"><use transform="matrix(0.05,0,0,0.05,0,0)" xlink:href="#aM"/><use transform="matrix(0.05,0,0,0.05,5.95,0)" xlink:href="#aN"/><use transform="matrix(0.05,0,0,0.05,15.949999999999998,0)" xlink:href="#aO"/><use transform="matrix(0.05,0,0,0.05,20.95,0)" xlink:href="#aN"/><use transform="matrix(0.05,0,0,0.05,30.950000000000003,0)" xlink:href="#aM"/><use transform="matrix(0.05,0,0,0.05,36.9,0)" xlink:href="#aN"/><use transform="matrix(0.05,0,0,0.05,46.9,0)" xlink:href="#aI"/><use transform="matrix(0.05,0,0,0.05,56.900000000000006,0)" xlink:href="#aP"/><use transform="matrix(0.05,0,0,0.05,65.9,0)" xlink:href="#aN"/></g><use transform="matrix(0.05,0,0,0.05,0,0)" xlink:href="#bf" id="V"/><g id="W"><use transform="matrix(0.05,0,0,0.05,0,0)" xlink:href="#aF"/><use transform="matrix(0.05,0,0,0.05,12.950000000000001,0)" xlink:href="#aG"/><use transform="matrix(0.05,0,0,0.05,22.950000000000003,0)" xlink:href="#aH"/><use transform="matrix(0.05,0,0,0.05,35.900000000000006,0)" xlink:href="#aI"/><use transform="matrix(0.05,0,0,0.05,45.900000000000006,0)" xlink:href="#aJ"/><use transform="matrix(0.05,0,0,0.05,49.85000000000001,0)" xlink:href="#aG"/><use transform="matrix(0.05,0,0,0.05,59.85,0)" xlink:href="#aK"/><use transform="matrix(0.05,0,0,0.05,69.85000000000001,0)" xlink:href="#aL"/></g><path fill="#fff" d="M151-220L108 0H75l42-220H32l6-28h203l-5 28h-85" id="cr"/><g id="X"><use transform="matrix(0.05,0,0,0.05,0,0)" xlink:href="#aF"/><use transform="matrix(0.05,0,0,0.05,12.950000000000001,0)" xlink:href="#aT"/><use transform="matrix(0.05,0,0,0.05,23.6,0)" xlink:href="#cr"/><use transform="matrix(0.05,0,0,0.05,33.2,0)" xlink:href="#aT"/></g><g id="Y"><use transform="matrix(0.05,0,0,0.05,0,0)" xlink:href="#aS"/><use transform="matrix(0.05,0,0,0.05,12,0)" xlink:href="#cm"/><use transform="matrix(0.05,0,0,0.05,24,0)" xlink:href="#cr"/></g><g id="Z"><use transform="matrix(0.05,0,0,0.05,0,0)" xlink:href="#aS"/><use transform="matrix(0.05,0,0,0.05,12,0)" xlink:href="#be"/></g><path fill="#fff" d="M52-101C46-14 166-7 216-51l9-45h-74l6-28h105l-18 87C217-12 181 4 130 4 60 4 18-31 18-101c0-106 78-167 188-146 30 6 48 27 59 54l-34 9c-10-26-31-41-67-40-75 1-107 50-112 123" id="cs"/><g id="aa"><use transform="matrix(0.05,0,0,0.05,0,0)" xlink:href="#cs"/><use transform="matrix(0.05,0,0,0.05,14,0)" xlink:href="#aN"/><use transform="matrix(0.05,0,0,0.05,24,0)" xlink:href="#aI"/><use transform="matrix(0.05,0,0,0.05,34,0)" xlink:href="#aN"/><use transform="matrix(0.05,0,0,0.05,44,0)" xlink:href="#aM"/><use transform="matrix(0.05,0,0,0.05,49.95,0)" xlink:href="#aK"/><use transform="matrix(0.05,0,0,0.05,59.95,0)" xlink:href="#bi"/><use transform="matrix(0.05,0,0,0.05,64.95,0)" xlink:href="#aN"/></g><g id="ab"><use transform="matrix(0.05,0,0,0.05,0,0)" xlink:href="#cn"/><use transform="matrix(0.05,0,0,0.05,10,0)" xlink:href="#aK"/><use transform="matrix(0.05,0,0,0.05,20,0)" xlink:href="#bi"/><use transform="matrix(0.05,0,0,0.05,25,0)" xlink:href="#bi"/><use transform="matrix(0.05,0,0,0.05,30,0)" xlink:href="#aN"/><use transform="matrix(0.05,0,0,0.05,40,0)" xlink:href="#aM"/><use transform="matrix(0.05,0,0,0.05,45.95,0)" xlink:href="#aI"/><use transform="matrix(0.05,0,0,0.05,55.95,0)" xlink:href="#bj"/></g><g id="ac"><use transform="matrix(0.05,0,0,0.05,0,0)" xlink:href="#aK"/><use transform="matrix(0.05,0,0,0.05,10,0)" xlink:href="#aI"/><use transform="matrix(0.05,0,0,0.05,20,0)" xlink:href="#aL"/></g><g id="ad"><use transform="matrix(0.05,0,0,0.05,0,0)" xlink:href="#bj"/><use transform="matrix(0.05,0,0,0.05,9,0)" xlink:href="#bi"/><use transform="matrix(0.05,0,0,0.05,14,0)" xlink:href="#aK"/><use transform="matrix(0.05,0,0,0.05,24,0)" xlink:href="#bi"/><use transform="matrix(0.05,0,0,0.05,29,0)" xlink:href="#bo"/><use transform="matrix(0.05,0,0,0.05,32.95,0)" xlink:href="#bj"/><use transform="matrix(0.05,0,0,0.05,41.95,0)" xlink:href="#bi"/><use transform="matrix(0.05,0,0,0.05,46.95,0)" xlink:href="#bo"/><use transform="matrix(0.05,0,0,0.05,50.900000000000006,0)" xlink:href="#aP"/><use transform="matrix(0.05,0,0,0.05,59.900000000000006,0)" xlink:href="#bj"/></g><g id="ae"><use transform="matrix(0.05,0,0,0.05,0,0)" xlink:href="#bj"/><use transform="matrix(0.05,0,0,0.05,9,0)" xlink:href="#bo"/><use transform="matrix(0.05,0,0,0.05,12.949999999999998,0)" xlink:href="#bi"/><use transform="matrix(0.05,0,0,0.05,17.95,0)" xlink:href="#aN"/><use transform="matrix(0.05,0,0,0.05,27.950000000000003,0)" xlink:href="#bj"/></g><g id="af"><use transform="matrix(0.05,0,0,0.05,0,0)" xlink:href="#aG"/><use transform="matrix(0.05,0,0,0.05,10,0)" xlink:href="#aO"/></g><path fill="#fff" d="M-8 0l5-24 140-142H31l5-24h145l-5 24L36-24h119l-5 24H-8" id="ct"/><g id="ag"><use transform="matrix(0.05,0,0,0.05,0,0)" xlink:href="#bh"/><use transform="matrix(0.05,0,0,0.05,5,0)" xlink:href="#aI"/><use transform="matrix(0.05,0,0,0.05,15,0)" xlink:href="#aO"/><use transform="matrix(0.05,0,0,0.05,20,0)" xlink:href="#aJ"/><use transform="matrix(0.05,0,0,0.05,23.95,0)" xlink:href="#bl"/><use transform="matrix(0.05,0,0,0.05,33.95,0)" xlink:href="#aN"/><use transform="matrix(0.05,0,0,0.05,43.95,0)" xlink:href="#aI"/><use transform="matrix(0.05,0,0,0.05,53.95,0)" xlink:href="#ct"/><use transform="matrix(0.05,0,0,0.05,62.95,0)" xlink:href="#aK"/></g><use transform="matrix(0.05,0,0,0.05,0,0)" xlink:href="#aT" id="ah"/><path fill="#fff" d="M17-49c1-102 45-165 103-212h30C92-210 49-145 49-46 49 4 63 43 85 75H54C30 43 18 2 17-49" id="cu"/><g id="ai"><use transform="matrix(0.05,0,0,0.05,0,0)" xlink:href="#cu"/><use transform="matrix(0.05,0,0,0.05,5.95,0)" xlink:href="#bj"/><use transform="matrix(0.05,0,0,0.05,14.949999999999998,0)" xlink:href="#aJ"/><use transform="matrix(0.05,0,0,0.05,18.9,0)" xlink:href="#bo"/><use transform="matrix(0.05,0,0,0.05,22.849999999999998,0)" xlink:href="#aL"/><use transform="matrix(0.05,0,0,0.05,32.849999999999994,0)" xlink:href="#aN"/></g><path fill="#fff" d="M39-185c1-48 36-66 85-66 42 0 74 18 74 59 0 38-25 57-56 64 23 7 40 22 40 52 0 55-39 80-94 80C40 4 10-17 9-63c-1-44 31-60 63-71-20-7-33-25-33-51zm31 3c0 26 17 39 46 39 34 0 48-18 49-48 0-25-18-36-45-36-32 0-50 15-50 45zm79 105c0-29-19-41-50-41-37 0-57 20-57 55 0 29 19 42 49 42 36 0 58-19 58-56" id="cv"/><path fill="#fff" d="M98-137C97-35 54 29-4 75h-31C23 23 67-41 67-140c0-50-15-89-37-121h31c24 32 36 73 37 124" id="cw"/><g id="aj"><use transform="matrix(0.05,0,0,0.05,0,0)" xlink:href="#cv"/><use transform="matrix(0.05,0,0,0.05,10,0)" xlink:href="#cw"/></g><path d="M143 4C61 4 22-44 18-125c-5-107 100-154 193-111 17 8 29 25 37 43l-32 9c-13-25-37-40-76-40-61 0-88 39-88 99 0 61 29 100 91 101 35 0 62-11 79-27v-45h-74v-28h105v86C228-13 192 4 143 4" id="cx"/><path d="M100-194c63 0 86 42 84 106H49c0 40 14 67 53 68 26 1 43-12 49-29l28 8c-11 28-37 45-77 45C44 4 14-33 15-96c1-61 26-98 85-98zm52 81c6-60-76-77-97-28-3 7-6 17-6 28h103" id="cy"/><path d="M59-47c-2 24 18 29 38 22v24C64 9 27 4 27-40v-127H5v-23h24l9-43h21v43h35v23H59v120" id="cz"/><g id="ak"><use transform="matrix(0.05,0,0,0.05,0,0)" xlink:href="#cx"/><use transform="matrix(0.05,0,0,0.05,14,0)" xlink:href="#cy"/><use transform="matrix(0.05,0,0,0.05,24,0)" xlink:href="#cz"/></g><path d="M115-194c55 1 70 41 70 98S169 2 115 4C84 4 66-9 55-30l1 105H24l-1-265h31l2 30c10-21 28-34 59-34zm-8 174c40 0 45-34 45-75s-6-73-45-74c-42 0-51 32-51 76 0 43 10 73 51 73" id="cA"/><path d="M100-194c62-1 85 37 85 99 1 63-27 99-86 99S16-35 15-95c0-66 28-99 85-99zM99-20c44 1 53-31 53-75 0-43-8-75-51-75s-53 32-53 75 10 74 51 75" id="cB"/><path d="M24 0v-261h32V0H24" id="cC"/><path d="M179-190L93 31C79 59 56 82 12 73V49c39 6 53-20 64-50L1-190h34L92-34l54-156h33" id="cD"/><path d="M115-194c53 0 69 39 70 98 0 66-23 100-70 100C84 3 66-7 56-30L54 0H23l1-261h32v101c10-23 28-34 59-34zm-8 174c40 0 45-34 45-75 0-40-5-75-45-74-42 0-51 32-51 76 0 43 10 73 51 73" id="cE"/><path d="M141-36C126-15 110 5 73 4 37 3 15-17 15-53c-1-64 63-63 125-63 3-35-9-54-41-54-24 1-41 7-42 31l-33-3c5-37 33-52 76-52 45 0 72 20 72 64v82c-1 20 7 32 28 27v20c-31 9-61-2-59-35zM48-53c0 20 12 33 32 33 41-3 63-29 60-74-43 2-92-5-92 41" id="cF"/><path d="M135-143c-3-34-86-38-87 0 15 53 115 12 119 90S17 21 10-45l28-5c4 36 97 45 98 0-10-56-113-15-118-90-4-57 82-63 122-42 12 7 21 19 24 35" id="cG"/><path d="M24-231v-30h32v30H24zM24 0v-190h32V0H24" id="cH"/><path d="M96-169c-40 0-48 33-48 73s9 75 48 75c24 0 41-14 43-38l32 2c-6 37-31 61-74 61-59 0-76-41-82-99-10-93 101-131 147-64 4 7 5 14 7 22l-32 3c-4-21-16-35-41-35" id="cI"/><g id="al"><use transform="matrix(0.05,0,0,0.05,0,0)" xlink:href="#cA"/><use transform="matrix(0.05,0,0,0.05,10,0)" xlink:href="#cB"/><use transform="matrix(0.05,0,0,0.05,20,0)" xlink:href="#cC"/><use transform="matrix(0.05,0,0,0.05,23.95,0)" xlink:href="#cD"/><use transform="matrix(0.05,0,0,0.05,32.95,0)" xlink:href="#cE"/><use transform="matrix(0.05,0,0,0.05,42.95,0)" xlink:href="#cF"/><use transform="matrix(0.05,0,0,0.05,52.95,0)" xlink:href="#cG"/><use transform="matrix(0.05,0,0,0.05,61.95,0)" xlink:href="#cH"/><use transform="matrix(0.05,0,0,0.05,65.9,0)" xlink:href="#cI"/></g><path d="M108 0H70L1-190h34L89-25l56-165h34" id="cJ"/><path d="M177-190C167-65 218 103 67 71c-23-6-38-20-44-43l32-5c15 47 100 32 89-28v-30C133-14 115 1 83 1 29 1 15-40 15-95c0-56 16-97 71-98 29-1 48 16 59 35 1-10 0-23 2-32h30zM94-22c36 0 50-32 50-73 0-42-14-75-50-75-39 0-46 34-46 75s6 73 46 73" id="cK"/><g id="am"><use transform="matrix(0.05,0,0,0.05,0,0)" xlink:href="#cI"/><use transform="matrix(0.05,0,0,0.05,9,0)" xlink:href="#cC"/><use transform="matrix(0.05,0,0,0.05,12.949999999999998,0)" xlink:href="#cy"/><use transform="matrix(0.05,0,0,0.05,22.95,0)" xlink:href="#cF"/><use transform="matrix(0.05,0,0,0.05,32.95,0)" xlink:href="#cJ"/><use transform="matrix(0.05,0,0,0.05,41.95,0)" xlink:href="#cF"/><use transform="matrix(0.05,0,0,0.05,51.95,0)" xlink:href="#cK"/><use transform="matrix(0.05,0,0,0.05,61.95,0)" xlink:href="#cy"/></g><g id="an"><use transform="matrix(0.05,0,0,0.05,0,0)" xlink:href="#cG"/><use transform="matrix(0.05,0,0,0.05,9,0)" xlink:href="#cH"/><use transform="matrix(0.05,0,0,0.05,12.949999999999998,0)" xlink:href="#cz"/><use transform="matrix(0.05,0,0,0.05,17.95,0)" xlink:href="#cy"/></g><path d="M117-194c89-4 53 116 60 194h-32v-121c0-31-8-49-39-48C34-167 62-67 57 0H25l-1-190h30c1 10-1 24 2 32 11-22 29-35 61-36" id="cL"/><g id="ao"><use transform="matrix(0.05,0,0,0.05,0,0)" xlink:href="#cA"/><use transform="matrix(0.05,0,0,0.05,10,0)" xlink:href="#cB"/><use transform="matrix(0.05,0,0,0.05,20,0)" xlink:href="#cG"/><use transform="matrix(0.05,0,0,0.05,29,0)" xlink:href="#cH"/><use transform="matrix(0.05,0,0,0.05,32.95,0)" xlink:href="#cz"/><use transform="matrix(0.05,0,0,0.05,37.95,0)" xlink:href="#cH"/><use transform="matrix(0.05,0,0,0.05,41.900000000000006,0)" xlink:href="#cB"/><use transform="matrix(0.05,0,0,0.05,51.900000000000006,0)" xlink:href="#cL"/></g><g id="ap"><use transform="matrix(0.05,0,0,0.05,0,0)" xlink:href="#cH"/><use transform="matrix(0.05,0,0,0.05,3.95,0)" xlink:href="#cL"/></g><path d="M114-163C36-179 61-72 57 0H25l-1-190h30c1 12-1 29 2 39 6-27 23-49 58-41v29" id="cM"/><path d="M101-234c-31-9-42 10-38 44h38v23H63V0H32v-167H5v-23h27c-7-52 17-82 69-68v24" id="cN"/><path d="M33 0v-38h34V0H33" id="cO"/><g id="aq"><use transform="matrix(0.05,0,0,0.05,0,0)" xlink:href="#cM"/><use transform="matrix(0.05,0,0,0.05,5.95,0)" xlink:href="#cy"/><use transform="matrix(0.05,0,0,0.05,15.949999999999998,0)" xlink:href="#cN"/><use transform="matrix(0.05,0,0,0.05,20.95,0)" xlink:href="#cy"/><use transform="matrix(0.05,0,0,0.05,30.950000000000003,0)" xlink:href="#cM"/><use transform="matrix(0.05,0,0,0.05,36.9,0)" xlink:href="#cy"/><use transform="matrix(0.05,0,0,0.05,46.9,0)" xlink:href="#cL"/><use transform="matrix(0.05,0,0,0.05,56.900000000000006,0)" xlink:href="#cI"/><use transform="matrix(0.05,0,0,0.05,65.9,0)" xlink:href="#cy"/><use transform="matrix(0.05,0,0,0.05,75.9,0)" xlink:href="#cO"/></g><path d="M233-177c-1 41-23 64-60 70L243 0h-38l-65-103H63V0H30v-248c88 3 205-21 203 71zM63-129c60-2 137 13 137-47 0-61-80-42-137-45v92" id="cP"/><path d="M84 4C-5 8 30-112 23-190h32v120c0 31 7 50 39 49 72-2 45-101 50-169h31l1 190h-30c-1-10 1-25-2-33-11 22-28 36-60 37" id="cQ"/><g id="ar"><use transform="matrix(0.05,0,0,0.05,0,0)" xlink:href="#cP"/><use transform="matrix(0.05,0,0,0.05,12.950000000000001,0)" xlink:href="#cQ"/><use transform="matrix(0.05,0,0,0.05,22.950000000000003,0)" xlink:href="#cL"/></g><path d="M106-169C34-169 62-67 57 0H25v-261h32l-1 103c12-21 28-36 61-36 89 0 53 116 60 194h-32v-121c2-32-8-49-39-48" id="cR"/><g id="as"><use transform="matrix(0.05,0,0,0.05,0,0)" xlink:href="#cz"/><use transform="matrix(0.05,0,0,0.05,5,0)" xlink:href="#cR"/><use transform="matrix(0.05,0,0,0.05,15,0)" xlink:href="#cy"/></g><path d="M190 0L58-211 59 0H30v-248h39L202-35l-2-213h31V0h-41" id="cS"/><path d="M205 0l-28-72H64L36 0H1l101-248h38L239 0h-34zm-38-99l-47-123c-12 45-31 82-46 123h93" id="cT"/><path d="M85-194c31 0 48 13 60 33l-1-100h32l1 261h-30c-2-10 0-23-3-31C134-8 116 4 85 4 32 4 16-35 15-94c0-66 23-100 70-100zm9 24c-40 0-46 34-46 75 0 40 6 74 45 74 42 0 51-32 51-76 0-42-9-74-50-73" id="cU"/><g id="at"><use transform="matrix(0.05,0,0,0.05,0,0)" xlink:href="#cP"/><use transform="matrix(0.05,0,0,0.05,12.950000000000001,0)" xlink:href="#cS"/><use transform="matrix(0.05,0,0,0.05,25.900000000000002,0)" xlink:href="#cT"/><use transform="matrix(0.05,0,0,0.05,37.900000000000006,0)" xlink:href="#cN"/><use transform="matrix(0.05,0,0,0.05,42.900000000000006,0)" xlink:href="#cB"/><use transform="matrix(0.05,0,0,0.05,52.900000000000006,0)" xlink:href="#cC"/><use transform="matrix(0.05,0,0,0.05,56.85,0)" xlink:href="#cU"/></g><path d="M234-2c-28 10-62 0-77-18C117 19 8 12 13-65c3-43 29-61 60-76-25-40-17-114 47-108 35 3 59 15 59 50 0 44-40 53-71 69 14 26 32 50 51 72 14-21 24-43 30-72l26 8c-9 33-21 57-38 82 13 13 33 22 57 15v23zM97-151c25-10 52-18 56-48-1-18-13-29-33-29-42 0-39 50-23 77zM42-66c-3 51 71 58 98 28-20-24-41-51-56-80-23 10-40 24-42 52" id="cV"/><use transform="matrix(0.05,0,0,0.05,0,0)" xlink:href="#cV" id="au"/><path d="M140-251c81 0 123 46 123 126C263-53 228-8 163 1c7 30 30 48 69 40v23c-55 16-95-15-103-61C56-3 17-48 17-125c0-80 42-126 123-126zm0 227c63 0 89-41 89-101s-29-99-89-99c-61 0-89 39-89 99S79-25 140-24" id="cW"/><path d="M143 0L79-87 56-68V0H24v-261h32v163l83-92h37l-77 82L181 0h-38" id="cX"/><g id="av"><use transform="matrix(0.05,0,0,0.05,0,0)" xlink:href="#cW"/><use transform="matrix(0.05,0,0,0.05,14,0)" xlink:href="#cQ"/><use transform="matrix(0.05,0,0,0.05,24,0)" xlink:href="#cH"/><use transform="matrix(0.05,0,0,0.05,27.950000000000003,0)" xlink:href="#cI"/><use transform="matrix(0.05,0,0,0.05,36.95,0)" xlink:href="#cX"/><use transform="matrix(0.05,0,0,0.05,45.95,0)" xlink:href="#cN"/><use transform="matrix(0.05,0,0,0.05,50.95,0)" xlink:href="#cB"/><use transform="matrix(0.05,0,0,0.05,60.95,0)" xlink:href="#cC"/><use transform="matrix(0.05,0,0,0.05,64.9,0)" xlink:href="#cU"/></g><path d="M206 0h-36l-40-164L89 0H53L-1-190h32L70-26l43-164h34l41 164 42-164h31" id="cY"/><g id="aw"><use transform="matrix(0.05,0,0,0.05,0,0)" xlink:href="#cY"/><use transform="matrix(0.05,0,0,0.05,12.950000000000001,0)" xlink:href="#cy"/><use transform="matrix(0.05,0,0,0.05,22.950000000000003,0)" xlink:href="#cE"/></g><g id="ax"><use transform="matrix(0.05,0,0,0.05,0,0)" xlink:href="#cG"/><use transform="matrix(0.05,0,0,0.05,9,0)" xlink:href="#cy"/><use transform="matrix(0.05,0,0,0.05,19,0)" xlink:href="#cM"/><use transform="matrix(0.05,0,0,0.05,24.95,0)" xlink:href="#cJ"/><use transform="matrix(0.05,0,0,0.05,33.95,0)" xlink:href="#cy"/><use transform="matrix(0.05,0,0,0.05,43.95,0)" xlink:href="#cM"/><use transform="matrix(0.05,0,0,0.05,49.900000000000006,0)" xlink:href="#cG"/></g><g id="ay"><use transform="matrix(0.05,0,0,0.05,0,0)" xlink:href="#cY"/><use transform="matrix(0.05,0,0,0.05,12.950000000000001,0)" xlink:href="#cH"/><use transform="matrix(0.05,0,0,0.05,16.900000000000002,0)" xlink:href="#cz"/><use transform="matrix(0.05,0,0,0.05,21.900000000000002,0)" xlink:href="#cR"/></g><path d="M145-31C134-9 116 4 85 4 32 4 16-35 15-94c0-59 17-99 70-100 32-1 48 14 60 33 0-11-1-24 2-32h30l-1 268h-32zM93-21c41 0 51-33 51-76s-8-73-50-73c-40 0-46 35-46 75s5 74 45 74" id="cZ"/><g id="az"><use transform="matrix(0.05,0,0,0.05,0,0)" xlink:href="#cG"/><use transform="matrix(0.05,0,0,0.05,9,0)" xlink:href="#cy"/><use transform="matrix(0.05,0,0,0.05,19,0)" xlink:href="#cZ"/><use transform="matrix(0.05,0,0,0.05,29,0)" xlink:href="#cQ"/><use transform="matrix(0.05,0,0,0.05,39,0)" xlink:href="#cy"/><use transform="matrix(0.05,0,0,0.05,49,0)" xlink:href="#cL"/><use transform="matrix(0.05,0,0,0.05,59,0)" xlink:href="#cI"/><use transform="matrix(0.05,0,0,0.05,68,0)" xlink:href="#cy"/></g><path d="M210-169c-67 3-38 105-44 169h-31v-121c0-29-5-50-35-48C34-165 62-65 56 0H25l-1-190h30c1 10-1 24 2 32 10-44 99-50 107 0 11-21 27-35 58-36 85-2 47 119 55 194h-31v-121c0-29-5-49-35-48" id="da"/><g id="aA"><use transform="matrix(0.05,0,0,0.05,0,0)" xlink:href="#cI"/><use transform="matrix(0.05,0,0,0.05,9,0)" xlink:href="#cB"/><use transform="matrix(0.05,0,0,0.05,19,0)" xlink:href="#da"/><use transform="matrix(0.05,0,0,0.05,33.95,0)" xlink:href="#cA"/><use transform="matrix(0.05,0,0,0.05,43.95,0)" xlink:href="#cF"/><use transform="matrix(0.05,0,0,0.05,53.95,0)" xlink:href="#cM"/><use transform="matrix(0.05,0,0,0.05,59.900000000000006,0)" xlink:href="#cH"/><use transform="matrix(0.05,0,0,0.05,63.85,0)" xlink:href="#cG"/><use transform="matrix(0.05,0,0,0.05,72.85000000000001,0)" xlink:href="#cB"/><use transform="matrix(0.05,0,0,0.05,82.85000000000001,0)" xlink:href="#cL"/></g><g id="aB"><use transform="matrix(0.05,0,0,0.05,0,0)" xlink:href="#cM"/><use transform="matrix(0.05,0,0,0.05,5.95,0)" xlink:href="#cy"/><use transform="matrix(0.05,0,0,0.05,15.949999999999998,0)" xlink:href="#cG"/><use transform="matrix(0.05,0,0,0.05,24.95,0)" xlink:href="#cQ"/><use transform="matrix(0.05,0,0,0.05,34.95,0)" xlink:href="#cC"/><use transform="matrix(0.05,0,0,0.05,38.900000000000006,0)" xlink:href="#cz"/><use transform="matrix(0.05,0,0,0.05,43.900000000000006,0)" xlink:href="#cG"/></g><g id="aC"><use transform="matrix(0.05,0,0,0.05,0,0)" xlink:href="#cN"/><use transform="matrix(0.05,0,0,0.05,5,0)" xlink:href="#cB"/><use transform="matrix(0.05,0,0,0.05,15,0)" xlink:href="#cM"/></g><g id="aD"><use transform="matrix(0.05,0,0,0.05,0,0)" xlink:href="#cA"/><use transform="matrix(0.05,0,0,0.05,10,0)" xlink:href="#cM"/><use transform="matrix(0.05,0,0,0.05,15.949999999999998,0)" xlink:href="#cy"/><use transform="matrix(0.05,0,0,0.05,25.950000000000003,0)" xlink:href="#cU"/><use transform="matrix(0.05,0,0,0.05,35.95,0)" xlink:href="#cH"/><use transform="matrix(0.05,0,0,0.05,39.900000000000006,0)" xlink:href="#cG"/><use transform="matrix(0.05,0,0,0.05,48.900000000000006,0)" xlink:href="#cA"/><use transform="matrix(0.05,0,0,0.05,58.900000000000006,0)" xlink:href="#cB"/><use transform="matrix(0.05,0,0,0.05,68.9,0)" xlink:href="#cG"/><use transform="matrix(0.05,0,0,0.05,77.9,0)" xlink:href="#cF"/><use transform="matrix(0.05,0,0,0.05,87.9,0)" xlink:href="#cC"/></g><g id="aE"><use transform="matrix(0.05,0,0,0.05,0,0)" xlink:href="#cA"/><use transform="matrix(0.05,0,0,0.05,10,0)" xlink:href="#cF"/><use transform="matrix(0.05,0,0,0.05,20,0)" xlink:href="#cz"/><use transform="matrix(0.05,0,0,0.05,25,0)" xlink:href="#cR"/><use transform="matrix(0.05,0,0,0.05,35,0)" xlink:href="#cB"/><use transform="matrix(0.05,0,0,0.05,45,0)" xlink:href="#cK"/><use transform="matrix(0.05,0,0,0.05,55,0)" xlink:href="#cy"/><use transform="matrix(0.05,0,0,0.05,65,0)" xlink:href="#cL"/><use transform="matrix(0.05,0,0,0.05,75,0)" xlink:href="#cy"/><use transform="matrix(0.05,0,0,0.05,85,0)" xlink:href="#cG"/><use transform="matrix(0.05,0,0,0.05,94,0)" xlink:href="#cH"/><use transform="matrix(0.05,0,0,0.05,97.95,0)" xlink:href="#cG"/></g></defs></g></svg>